<?xml version="1.0" standalone="no"?>
<!DOCTYPE svg PUBLIC "-//W3C//DTD SVG 20010904//EN"
 "http://www.w3.org/TR/2001/REC-SVG-20010904/DTD/svg10.dtd">
<svg version="1.0" xmlns="http://www.w3.org/2000/svg"
 width="1008.000000pt" height="1008.000000pt" viewBox="0 0 1008.000000 1008.000000"
 preserveAspectRatio="xMidYMid meet">
<metadata>
Created by potrace 1.11, written by Peter Selinger 2001-2013
</metadata>
<g transform="translate(0.000000,1008.000000) scale(0.100000,-0.100000)"
fill="#000000" stroke="none">
<path d="M5115 9030 c-47 -5 -85 -16 -116 -33 -26 -15 -73 -30 -111 -36 -77
-11 -124 -33 -201 -96 -31 -25 -61 -44 -66 -41 -5 3 -14 -1 -21 -9 -7 -8 -9
-15 -4 -15 11 0 -13 -23 -28 -27 -105 -22 -151 -46 -174 -89 -15 -27 -21 -31
-36 -23 -13 7 -18 6 -18 -2 0 -8 -4 -8 -12 -1 -9 6 -21 6 -38 0 -25 -10 -24
-10 15 -23 40 -13 39 -13 -43 -14 -46 -1 -92 -6 -104 -12 -11 -6 -39 -12 -62
-14 -22 -2 -43 -4 -46 -5 -3 0 1 -4 8 -9 9 -5 -1 -12 -33 -21 -25 -7 -48 -16
-50 -21 -12 -18 -115 -69 -185 -92 -52 -16 -103 -43 -165 -87 -89 -64 -90 -64
-163 -66 -40 -1 -85 -7 -100 -12 -15 -6 -57 -15 -93 -21 -44 -6 -81 -19 -108
-37 -69 -45 -170 -194 -171 -250 0 -17 -8 -22 -39 -27 -21 -2 -52 -11 -67 -19
-25 -12 -29 -19 -26 -50 2 -22 -5 -49 -17 -69 -27 -47 -42 -261 -35 -494 5
-175 6 -182 39 -265 34 -84 67 -218 58 -233 -2 -4 -4 -37 -4 -73 0 -56 6 -77
41 -150 22 -46 55 -119 71 -161 17 -42 35 -84 39 -92 5 -9 27 -56 49 -106 23
-49 57 -120 76 -158 19 -37 35 -73 35 -79 0 -6 9 -21 19 -32 24 -26 55 -78 82
-136 11 -25 31 -56 44 -70 13 -14 31 -45 41 -70 9 -25 24 -52 32 -60 13 -13
14 -9 8 36 -3 28 -13 77 -22 110 -8 32 -17 68 -18 79 -2 11 -9 33 -15 50 -7
16 -14 43 -16 60 -1 16 -8 43 -14 59 -6 15 -13 56 -16 90 -2 33 -9 76 -14 94
-7 23 -6 42 1 60 14 35 18 142 5 142 -6 0 -7 3 -4 6 4 4 13 1 21 -5 16 -13 16
-11 16 67 0 17 5 32 11 32 5 0 8 4 5 8 -2 4 4 13 15 20 10 7 19 8 19 3 0 -16
32 -22 48 -9 13 11 14 10 7 -11 -4 -13 -3 -21 2 -18 19 12 42 -23 68 -98 14
-44 37 -94 51 -112 13 -17 24 -36 24 -41 0 -6 7 -12 15 -16 18 -6 20 -36 3
-36 -9 0 -9 -3 0 -12 10 -10 15 -10 21 1 7 11 11 10 20 -5 6 -11 11 -15 11
-10 0 5 7 3 15 -4 9 -7 18 -10 21 -7 3 3 33 -8 67 -24 44 -21 74 -29 104 -27
24 1 48 -3 55 -10 9 -9 7 -12 -9 -12 -11 0 -34 -7 -49 -15 -16 -8 -37 -15 -46
-15 -12 0 -18 -8 -18 -24 0 -21 6 -25 33 -28 37 -4 114 28 138 56 12 15 21 17
45 10 16 -4 40 -8 54 -9 33 0 42 -44 11 -52 -11 -3 -18 -9 -15 -14 3 -5 1 -9
-5 -9 -5 0 -13 5 -16 10 -10 16 -28 11 -21 -6 4 -11 2 -15 -7 -11 -7 3 -13 -3
-13 -13 0 -10 4 -16 8 -14 5 3 21 7 36 10 26 4 26 3 8 -11 -11 -8 -24 -15 -29
-15 -4 0 -5 -6 -1 -12 5 -9 2 -9 -9 1 -15 12 -17 11 -18 -10 0 -13 -2 -36 -4
-52 -3 -19 0 -25 8 -21 7 3 5 0 -3 -8 -9 -7 -14 -20 -12 -29 1 -9 -4 -19 -12
-22 -18 -7 -30 8 -20 24 4 7 1 10 -7 7 -8 -3 -13 -12 -13 -21 1 -11 -5 -16
-20 -14 -17 2 -21 -3 -21 -28 0 -29 -2 -30 -45 -31 -62 -2 -101 -10 -109 -22
-8 -13 -87 -32 -98 -23 -4 3 -1 -2 6 -11 12 -16 11 -18 -9 -18 -13 0 -33 -11
-46 -25 -13 -14 -21 -25 -18 -25 3 0 -13 -16 -36 -35 -23 -19 -46 -35 -52 -35
-5 0 -7 -3 -5 -7 3 -5 -1 -14 -9 -21 -12 -11 -14 -10 -14 4 0 10 -3 15 -6 11
-13 -12 18 -106 39 -120 12 -9 42 -33 66 -54 32 -29 52 -39 72 -38 34 2 40
-22 8 -33 -20 -8 -20 -8 5 -20 20 -9 24 -9 20 2 -3 8 1 17 8 22 7 4 10 3 5 -1
-4 -5 0 -19 8 -31 9 -14 11 -25 5 -29 -6 -3 -10 -1 -10 4 0 6 -9 11 -20 11
-22 0 -27 -15 -7 -23 10 -4 10 -6 0 -6 -16 -1 -17 -53 -2 -68 7 -7 13 -43 14
-80 4 -94 16 -123 54 -123 23 0 29 -4 25 -15 -4 -8 -2 -15 3 -15 18 0 33 -46
20 -60 -9 -10 -9 -11 2 -5 11 6 13 3 8 -15 -4 -16 -1 -23 13 -27 10 -3 21 -12
25 -21 5 -14 4 -15 -6 -4 -7 6 -17 12 -22 12 -15 0 -2 -121 17 -165 56 -126
57 -129 67 -114 7 12 9 11 9 -3 0 -9 -5 -20 -11 -24 -8 -4 -7 -9 2 -14 14 -9
19 -26 23 -82 1 -20 10 -44 19 -53 22 -21 21 -26 0 -18 -10 3 -15 3 -11 -2 4
-4 3 -16 -3 -26 -12 -24 6 -26 19 -3 7 13 13 14 28 6 10 -6 14 -12 9 -12 -7 0
-10 -28 -9 -70 1 -64 0 -70 -16 -65 -10 3 -21 1 -25 -5 -6 -9 10 -14 43 -13 6
1 12 -3 12 -8 0 -8 -16 -12 -45 -12 -14 0 -2 -132 13 -150 7 -8 9 -17 5 -21
-4 -3 -8 -17 -9 -29 -2 -12 0 -17 2 -10 3 7 11 10 19 7 22 -9 36 35 36 119 0
9 5 15 10 11 5 -3 9 -27 9 -52 -1 -26 0 -56 2 -67 2 -14 -3 -20 -17 -20 -14 0
-21 -8 -23 -27 -3 -22 0 -26 17 -21 12 3 18 9 16 14 -3 4 3 7 14 6 13 -1 18
-8 17 -23 0 -12 -4 -20 -8 -17 -5 2 -8 -5 -8 -16 0 -12 -5 -21 -11 -21 -5 0
-7 -4 -4 -10 9 -14 48 -13 63 2 8 8 12 8 12 1 0 -6 -7 -14 -16 -17 -13 -5 -14
-9 -4 -21 7 -8 9 -15 5 -15 -4 0 -2 -7 5 -15 6 -8 9 -19 5 -25 -3 -5 -1 -10 5
-10 6 0 8 -4 5 -10 -3 -5 -3 -10 2 -10 15 0 9 -120 -6 -130 -8 -4 -20 -28 -26
-52 -7 -24 -16 -51 -20 -61 -5 -12 -3 -17 5 -15 7 2 15 -3 17 -9 3 -8 -3 -13
-14 -14 -14 0 -13 -2 5 -10 19 -7 23 -14 18 -36 -3 -16 -9 -82 -12 -148 -7
-137 -7 -121 -1 -202 2 -35 1 -63 -2 -63 -4 0 -8 -14 -9 -31 -2 -25 1 -30 13
-25 9 3 15 0 15 -10 0 -8 -4 -12 -10 -9 -13 8 -13 3 1 -32 15 -38 19 -92 8
-99 -5 -3 -8 -15 -8 -27 0 -12 -2 -32 -6 -45 -6 -19 -2 -24 29 -37 35 -15 36
-17 36 -65 0 -38 4 -50 15 -50 8 0 15 -8 15 -17 0 -16 -2 -16 -10 -3 -8 11 -9
7 -4 -14 4 -15 7 -61 8 -101 0 -40 4 -68 8 -62 5 8 8 8 8 1 0 -5 -4 -14 -8
-20 -10 -12 22 -76 34 -66 4 4 2 -1 -5 -11 -18 -22 -21 -76 -9 -142 5 -27 9
-77 9 -109 0 -33 5 -68 11 -79 6 -11 12 -70 14 -131 2 -61 7 -136 11 -166 3
-30 7 -95 9 -145 2 -87 13 -298 19 -360 1 -16 -3 -33 -9 -37 -7 -5 -7 -8 2 -8
11 0 12 -14 7 -64 -4 -35 -3 -66 2 -69 5 -3 8 -54 6 -112 -3 -68 0 -105 6
-101 5 4 10 14 10 24 -1 9 1 50 4 89 3 42 1 70 -4 67 -5 -3 -9 0 -9 5 0 6 7
11 15 11 12 0 14 37 12 253 -2 139 -6 257 -10 263 -9 15 -12 82 -4 90 3 4 2
15 -3 24 -7 12 -5 29 4 50 13 33 5 102 -15 124 -12 13 -11 83 0 90 5 4 2 20
-7 39 -13 25 -16 55 -15 142 4 146 4 505 1 630 -2 60 1 101 7 103 6 1 10 -6
10 -15 0 -10 6 -24 13 -31 6 -7 12 -31 12 -53 0 -37 6 -44 36 -40 19 2 23
-255 5 -302 -6 -14 -4 -36 3 -58 7 -19 12 -65 12 -102 -1 -38 3 -67 9 -67 6 0
4 -4 -3 -9 -14 -9 -15 -2 24 -221 9 -52 22 -107 30 -121 7 -15 11 -29 7 -32
-12 -13 19 -95 40 -105 12 -6 16 -11 10 -11 -20 -1 -17 -210 2 -235 15 -19 15
-19 16 5 1 21 2 21 8 -6 6 -23 3 -36 -13 -54 -12 -13 -15 -21 -8 -17 14 8 17
-10 3 -19 -5 -3 -10 -24 -10 -48 -1 -61 -3 -77 -12 -77 -10 0 -17 -60 -7 -66
8 -5 10 1 12 35 2 24 20 22 32 -2 8 -18 7 -26 -3 -36 -7 -7 -11 -17 -7 -23 4
-6 0 -14 -7 -19 -8 -5 -9 -9 -3 -9 7 0 10 -15 8 -41 -3 -36 -2 -39 11 -29 13
11 14 10 9 -4 -3 -9 -11 -16 -16 -16 -5 0 -8 -6 -5 -12 2 -7 0 -23 -4 -36 -6
-14 -5 -22 2 -22 8 0 8 -4 0 -14 -8 -10 -9 -16 -1 -21 15 -9 12 -31 -6 -49
-13 -14 -14 -18 -1 -31 8 -8 18 -11 22 -7 5 4 5 1 1 -5 -4 -7 -14 -13 -22 -13
-8 0 -14 -3 -14 -7 -1 -5 -5 -28 -10 -53 -5 -27 -5 -47 1 -51 5 -3 7 -13 3
-22 -3 -9 -10 -15 -15 -12 -4 3 -13 -4 -19 -15 -10 -18 -8 -20 27 -21 23 -1
29 -3 16 -6 -18 -4 -23 -11 -22 -36 0 -30 1 -31 11 -10 l11 22 20 -25 c16 -21
17 -28 6 -34 -7 -5 -17 -6 -21 -4 -14 9 -8 -14 8 -31 9 -8 13 -22 10 -31 -3
-8 -2 -12 4 -9 6 4 10 -7 10 -24 0 -17 -4 -31 -10 -31 -16 0 -12 -17 6 -24 13
-5 15 5 14 67 0 39 2 93 6 119 5 39 3 51 -16 75 l-21 28 20 9 c24 10 29 39 6
30 -20 -8 -19 -2 5 41 22 40 25 49 10 40 -5 -3 -10 1 -10 9 0 8 4 18 10 21 6
3 10 24 10 46 0 22 -4 38 -9 35 -9 -6 -21 40 -21 81 0 19 4 24 22 21 11 -2 22
-10 23 -18 2 -8 8 -34 14 -58 7 -23 11 -61 10 -85 -1 -23 1 -87 4 -142 4 -72
3 -102 -6 -107 -9 -6 -9 -12 1 -28 14 -23 16 -42 2 -20 -8 12 -10 9 -10 -13 0
-16 4 -26 9 -23 5 4 11 1 13 -6 7 -19 -3 -58 -13 -52 -5 2 -8 -11 -7 -30 1
-31 3 -33 14 -18 7 9 14 28 14 42 0 14 7 35 15 47 11 16 12 22 2 26 -9 3 -9 9
0 26 12 18 10 21 -13 27 -18 5 -22 9 -13 15 7 4 22 3 33 -3 19 -10 20 -10 7 5
-12 15 -11 17 3 17 16 0 16 1 2 16 -20 19 -20 28 -1 44 8 7 15 19 15 28 0 8
-3 12 -7 9 -9 -10 -33 12 -28 26 2 7 6 25 10 40 5 24 8 27 20 17 8 -7 15 -9
15 -5 0 4 -8 13 -17 20 -18 14 -28 55 -13 55 15 0 12 29 -5 46 -8 9 -14 27
-14 42 l2 27 4 -25 c3 -14 8 -29 13 -34 13 -13 2 115 -11 131 -8 9 -13 81 -14
206 -2 105 -6 235 -10 287 -4 54 -2 121 3 155 17 95 24 275 12 275 -5 0 -10
15 -9 33 0 26 2 29 9 12 7 -16 9 -12 15 23 4 23 12 45 17 48 6 4 5 9 -2 14 -7
5 -2 7 14 7 28 1 37 -16 38 -69 0 -18 5 -39 11 -45 5 -7 5 -13 0 -13 -5 0 -9
-10 -10 -22 -5 -69 2 -265 10 -320 2 -15 1 -25 -3 -23 -4 3 -7 -6 -6 -19 1
-16 6 -22 16 -18 13 5 13 3 1 -11 -7 -9 -10 -17 -6 -17 4 0 3 -6 -2 -12 -8
-12 -9 -46 -4 -222 0 -27 4 -46 8 -42 4 4 6 37 6 74 -2 54 0 62 8 42 6 -14 8
-50 5 -80 -3 -30 -5 -59 -5 -63 -1 -5 -5 -5 -11 -2 -6 4 -10 -5 -9 -22 1 -17
3 -21 6 -11 4 16 6 16 20 3 8 -9 13 -22 10 -30 -3 -7 -1 -16 6 -19 7 -2 5 -5
-5 -5 -9 -1 -19 5 -21 12 -4 9 -8 9 -16 -3 -14 -20 -4 -31 25 -24 14 4 24 2
24 -5 0 -6 -6 -8 -14 -5 -19 7 -33 -36 -15 -47 11 -6 11 -9 -1 -14 -13 -4 -15
-45 -13 -273 1 -162 -3 -288 -10 -320 -8 -42 -8 -55 2 -62 10 -6 11 -12 1 -30
-7 -13 -9 -37 -6 -59 4 -20 7 -53 6 -74 l0 -37 75 0 76 0 0 53 c-1 28 2 68 5
87 3 19 7 46 9 60 2 14 4 25 5 25 1 0 3 41 5 91 2 50 9 111 15 135 7 24 14 69
15 99 2 30 10 82 18 115 8 33 18 93 22 133 5 45 11 72 19 72 14 0 33 51 35 93
1 28 29 87 41 87 17 0 38 -453 32 -660 -1 -14 0 -54 1 -90 2 -105 -2 -165 -13
-194 -5 -15 -10 -45 -10 -67 l0 -39 58 0 59 0 -7 53 c-4 28 -6 108 -4 177 3
69 4 130 4 135 0 6 -2 134 -5 285 -5 280 -7 318 -28 403 -8 37 -8 50 1 56 8 5
8 19 -2 57 -8 30 -10 58 -5 72 5 12 5 33 0 45 -5 13 -5 30 0 38 21 39 41 117
41 161 -1 35 3 48 14 48 8 0 14 -4 14 -9 0 -5 9 -13 20 -16 13 -4 20 -15 20
-31 0 -13 5 -24 10 -24 6 0 10 -15 10 -34 0 -19 6 -36 13 -39 15 -5 15 -99 -2
-105 -15 -5 -14 -29 1 -34 8 -3 13 -26 14 -62 0 -38 6 -61 15 -67 11 -7 14
-50 15 -226 0 -120 -2 -233 -4 -251 -5 -37 -29 -38 -24 -1 3 23 2 23 -13 5
-19 -24 -19 -27 0 -52 11 -14 14 -15 15 -4 0 10 4 9 14 -6 18 -26 10 -143 -10
-151 -16 -6 -19 -33 -3 -33 6 0 4 -7 -5 -15 -10 -10 -14 -28 -11 -53 2 -20 4
-41 5 -47 0 -5 5 -3 10 5 8 12 10 10 10 -11 0 -14 -6 -31 -12 -38 -11 -10 -9
-11 5 -5 17 6 18 0 15 -84 -2 -50 -7 -95 -11 -98 -4 -4 -7 0 -7 9 0 10 -4 17
-10 17 -6 0 -6 -9 -1 -23 5 -12 9 -26 10 -32 0 -5 30 -11 66 -13 57 -3 65 -1
65 15 0 10 3 42 6 70 4 29 2 53 -2 53 -11 0 -10 88 1 113 4 11 3 29 -4 43 -6
14 -7 23 -3 20 5 -3 9 8 10 25 0 16 -2 27 -6 25 -4 -2 -7 17 -8 42 0 26 -1 90
-3 142 -1 52 0 135 2 183 2 48 0 90 -5 93 -5 3 -5 11 -1 17 9 15 7 93 -3 109
-4 6 -3 8 3 5 7 -4 9 28 7 91 -1 58 2 102 8 110 8 9 7 24 -2 51 -7 21 -9 47
-6 59 4 11 2 23 -4 27 -6 3 -7 12 -3 18 10 16 12 57 16 340 3 142 1 240 -5
243 -5 3 0 13 11 21 12 8 19 18 17 22 -5 8 -7 70 -5 156 0 28 -2 111 -6 185
-9 196 -8 273 5 265 10 -6 30 74 30 119 0 19 5 36 12 38 6 2 8 10 4 16 -5 8
-15 4 -32 -15 -13 -14 -24 -21 -24 -16 0 6 7 16 15 23 8 7 15 22 16 34 0 11 3
15 6 9 9 -24 25 -13 19 13 -5 17 -3 23 4 19 5 -3 10 -1 10 5 0 6 4 9 9 6 4 -3
17 1 27 9 19 15 19 15 -1 33 -26 22 -32 92 -9 92 10 0 14 6 10 15 -3 8 1 32 8
52 7 21 11 44 9 51 -3 6 0 12 7 12 6 0 8 5 5 10 -9 15 -35 -8 -29 -25 3 -7 2
-15 -3 -18 -4 -3 -9 10 -10 28 -2 26 2 35 17 40 11 3 20 11 20 16 0 13 -14 11
-29 -3 -10 -11 -11 -9 -5 6 5 12 4 17 -3 13 -5 -3 -10 0 -10 8 0 8 4 12 8 9 4
-2 10 2 12 8 3 8 6 6 6 -4 1 -10 6 -18 12 -18 7 0 9 9 5 23 -3 12 -6 26 -6 31
0 5 -9 1 -20 -9 -20 -18 -21 -18 -18 16 1 19 6 37 10 40 5 3 4 16 -1 30 -10
24 -10 24 -10 2 -1 -13 -4 -23 -8 -23 -5 0 -17 -14 -28 -30 -21 -31 -38 -41
-29 -15 4 10 0 15 -11 15 -9 0 -13 5 -10 10 4 6 10 8 14 5 5 -2 13 7 20 22 11
23 10 25 -8 20 -12 -3 -22 1 -25 9 -3 8 1 14 9 14 18 0 31 46 17 63 -10 13
-10 52 1 63 4 4 7 22 7 41 0 23 5 33 16 33 12 0 11 6 -7 32 -13 17 -18 28 -11
24 7 -4 12 -1 12 8 0 8 -9 18 -21 21 -16 5 -18 10 -8 21 6 7 16 11 23 8 6 -3
0 4 -14 15 -14 11 -19 21 -12 21 6 0 12 5 12 11 0 7 -10 9 -25 5 -20 -5 -27
-2 -34 16 l-8 22 -12 -22 c-15 -29 -31 -19 -31 19 0 18 -6 32 -16 36 -12 4
-14 14 -9 43 5 29 3 39 -10 44 -12 4 -14 10 -5 25 5 11 10 27 10 36 0 9 8 27
18 40 18 23 19 23 35 4 9 -10 19 -30 23 -44 3 -14 10 -25 14 -25 4 0 11 -10
14 -22 6 -23 7 -23 21 -4 8 11 15 15 15 10 0 -6 -5 -15 -11 -21 -18 -18 -1
-53 25 -53 18 0 24 6 24 25 0 14 -6 25 -13 25 -10 0 -12 11 -9 35 2 20 -1 45
-7 57 -8 14 -8 23 -1 27 7 4 7 12 3 20 -5 7 -13 11 -18 8 -5 -3 -10 0 -10 7 0
7 7 13 16 12 17 -1 21 18 9 52 -5 15 -4 22 5 22 8 0 7 4 -3 10 -9 6 -11 10 -3
10 7 0 10 7 7 15 -4 8 -13 15 -21 15 -8 0 -11 5 -8 10 4 6 10 8 15 5 5 -3 11
-1 15 5 3 5 0 10 -7 10 -9 0 -13 14 -13 44 0 24 3 42 7 40 4 -3 5 2 2 10 -6
15 -17 20 -36 17 -5 0 -8 3 -8 8 0 6 -9 8 -21 6 -18 -4 -20 -1 -15 18 5 21 4
21 -14 -3 -24 -31 -25 -40 -2 -40 10 0 13 -3 6 -8 -16 -10 -44 -68 -44 -90 0
-11 -8 -28 -17 -39 -10 -10 -17 -17 -16 -15 1 3 -2 12 -7 21 -5 10 -5 23 0 31
5 8 5 21 -1 31 -6 11 -5 20 1 24 5 3 10 22 10 41 0 31 2 35 21 29 14 -5 19 -3
15 4 -4 5 -1 19 6 31 10 15 10 24 1 39 -8 12 -8 22 -2 28 10 10 -10 93 -22 93
-4 0 -5 10 -2 23 4 20 4 20 -9 -3 -11 -19 -21 -24 -45 -23 -20 2 -33 -3 -37
-12 -3 -8 0 -14 7 -12 7 1 12 -10 13 -25 1 -16 -3 -28 -7 -28 -5 0 -9 6 -9 14
0 7 -7 19 -15 26 -13 11 -14 10 -8 -5 6 -17 5 -17 -13 1 -18 17 -18 20 -4 31
8 6 15 20 15 30 0 11 6 17 15 15 12 -3 12 -1 3 9 -6 6 -19 9 -28 5 -12 -4 -14
-10 -5 -25 12 -24 -1 -35 -31 -26 -20 7 -21 32 0 28 6 -2 11 5 11 16 0 13 -7
18 -22 17 -18 -1 -24 -9 -29 -36 -8 -43 -11 -38 -13 18 -1 23 3 42 9 42 5 0 4
4 -4 9 -8 5 -16 23 -17 40 -4 31 -4 31 21 15 21 -14 23 -19 13 -32 -9 -11 -9
-14 -1 -9 6 4 14 3 18 -3 3 -5 1 -10 -5 -10 -6 0 -8 -5 -4 -11 4 -8 10 -5 17
7 6 11 21 27 33 37 22 17 23 54 2 41 -7 -4 -6 -9 1 -13 6 -4 3 -11 -9 -19 -17
-11 -20 -9 -20 10 0 13 0 34 -1 47 0 13 5 27 12 31 7 5 9 20 5 41 -4 19 -7 42
-7 52 0 9 -5 15 -11 11 -6 -4 -6 2 1 15 7 12 9 26 6 31 -3 6 -1 10 5 10 9 0 9
56 0 68 -1 1 -2 14 -3 30 0 23 3 27 25 25 21 -1 24 2 20 23 -6 33 25 33 34 -1
9 -35 27 -31 22 5 -3 16 -1 31 4 31 4 1 13 2 18 3 6 0 14 6 18 13 5 7 13 9 21
4 8 -5 10 -14 6 -21 -5 -9 -4 -11 3 -6 12 7 17 -10 14 -45 -1 -9 8 -25 18 -34
19 -17 20 -17 20 1 0 15 2 16 9 5 5 -8 8 -22 6 -32 -2 -11 4 -20 16 -24 24 -8
42 3 35 22 -3 8 -1 11 4 8 6 -3 10 0 10 7 0 9 3 9 10 -2 9 -13 10 -13 10 0 0
13 2 13 9 1 5 -8 16 -11 24 -8 16 6 31 -18 21 -34 -3 -5 2 -9 10 -9 8 0 20 16
27 35 7 19 16 35 20 35 4 0 4 13 -1 30 -10 34 2 47 23 25 18 -17 37 -20 37 -5
0 6 -6 10 -14 10 -8 0 -17 4 -20 9 -4 5 8 7 26 5 29 -3 30 -2 11 6 -13 5 -23
16 -23 25 0 9 -6 18 -14 21 -11 4 -13 12 -6 29 6 16 6 27 -1 31 -5 3 -8 19 -5
35 2 16 0 27 -4 24 -5 -3 -11 -1 -15 5 -6 9 8 15 29 11 5 -1 3 5 -4 14 -7 9
-19 14 -26 11 -8 -3 -11 0 -7 10 3 7 11 14 19 14 16 0 18 9 4 30 -7 12 -12 12
-22 2 -9 -9 -8 -12 7 -12 18 0 18 0 -1 -14 -18 -13 -20 -12 -26 17 -3 18 -2
34 3 38 5 3 7 14 3 25 -6 18 -6 18 9 -1 15 -19 16 -19 23 -2 5 14 9 15 15 6
14 -24 34 -17 35 12 1 16 -2 29 -6 29 -4 0 -7 8 -6 18 1 12 -5 16 -23 14 -18
-2 -22 2 -17 14 6 17 -9 44 -25 44 -5 0 -6 -7 -3 -15 3 -8 -1 -22 -10 -30 -9
-9 -16 -24 -16 -33 0 -12 -4 -9 -14 8 -7 15 -9 32 -5 41 5 9 5 20 1 24 -4 5 0
6 9 2 13 -4 18 3 23 31 9 58 7 71 -13 89 -11 9 -17 22 -14 29 2 7 0 22 -7 33
-7 15 -8 27 0 40 9 18 12 18 40 5 28 -15 34 -27 31 -64 -1 -9 3 -7 11 6 7 12
19 19 25 17 7 -3 16 2 19 11 3 9 9 14 13 11 9 -5 7 32 -2 41 -13 13 -7 33 8
28 10 -4 15 0 15 11 0 11 -5 15 -15 11 -9 -3 -18 1 -21 9 -4 8 -12 15 -19 15
-7 0 -15 8 -18 19 -2 10 -17 25 -33 33 -69 36 -99 54 -106 63 -4 5 -10 6 -14
2 -4 -4 -14 -1 -22 5 -7 7 -23 13 -35 15 -11 2 -26 8 -32 13 -7 5 -14 7 -18 4
-3 -3 -15 -1 -26 6 -12 6 -21 7 -21 1 0 -5 -7 -11 -15 -15 -8 -3 -14 -2 -14 2
5 30 -38 53 -53 29 -5 -9 -10 -9 -19 0 -7 7 -22 8 -42 2 -18 -4 -72 -7 -122
-5 -49 1 -108 -2 -130 -7 -22 -5 -51 -11 -65 -12 -43 -5 -90 -15 -133 -30 -32
-11 -43 -11 -49 -2 -5 8 -8 6 -8 -5 0 -10 -7 -19 -15 -19 -24 -2 -29 -4 -42
-12 -7 -5 -16 0 -22 11 -7 13 -18 18 -39 14 -18 -2 -33 2 -41 12 -9 11 -10 16
-2 16 6 0 11 5 11 12 0 9 -3 9 -12 0 -7 -7 -17 -8 -29 -1 -14 7 -21 5 -29 -10
-7 -13 -7 -22 0 -26 5 -3 10 -12 10 -18 0 -8 -4 -7 -9 2 -8 12 -12 12 -26 -2
-9 -10 -21 -17 -26 -17 -5 0 0 9 12 21 17 17 18 23 8 36 -12 13 -14 13 -19 -3
-5 -13 -9 -14 -14 -5 -4 7 -20 11 -34 9 -17 -2 -26 2 -24 10 1 6 -5 12 -13 12
-8 0 -15 -8 -15 -17 0 -12 -7 -8 -26 15 -15 17 -31 29 -36 26 -5 -3 -12 3 -15
15 -3 12 -9 21 -13 21 -4 0 -10 9 -13 21 -4 13 -10 18 -18 13 -8 -4 -10 -3 -5
5 4 6 11 9 16 6 5 -3 11 -1 15 5 3 5 -2 10 -13 10 -24 0 -32 8 -25 26 3 8 17
14 32 14 16 0 28 5 28 13 0 14 -24 16 -44 4 -6 -4 -23 0 -39 7 -19 10 -33 12
-45 5 -10 -5 -24 -6 -32 -3 -8 3 -18 0 -22 -6 -5 -8 -11 -8 -21 1 -12 10 -12
14 -2 21 10 6 10 10 -2 17 -23 16 -8 20 37 11 32 -5 46 -4 54 6 6 8 20 14 30
14 10 0 20 4 24 9 3 5 18 12 34 16 31 7 48 30 28 39 -7 2 2 3 19 2 17 -2 47 5
67 14 19 10 47 20 61 24 21 5 25 3 20 -11 -5 -15 -4 -15 4 -3 6 8 8 18 6 22
-5 7 11 11 20 6 2 -2 12 5 22 14 11 9 43 25 73 35 44 15 55 23 58 43 2 16 0
20 -5 12 -5 -7 -13 -12 -18 -11 -5 2 -29 -4 -54 -11 -25 -7 -49 -13 -53 -12
-5 2 -6 -2 -2 -8 3 -5 1 -11 -4 -11 -12 -2 -26 -5 -38 -9 -5 -1 -11 -2 -15 -1
-4 0 -10 -8 -13 -19 -4 -11 -13 -20 -21 -20 -8 0 -12 5 -9 10 10 17 -11 11
-38 -10 -14 -11 -32 -17 -41 -14 -8 3 -30 -2 -48 -10 -22 -11 -34 -13 -36 -6
-3 8 -8 7 -18 -1 -8 -6 -14 -10 -15 -8 0 2 -2 17 -3 32 -1 23 2 27 16 24 29
-8 31 11 3 39 -23 23 -24 27 -10 47 8 12 18 21 20 20 11 -6 25 -2 25 6 0 5 -9
13 -20 16 -11 3 -20 11 -20 16 0 6 9 5 22 -2 19 -10 20 -9 13 7 -19 48 -18 53
19 60 30 5 34 9 25 20 -9 11 -6 14 21 14 24 0 31 4 26 15 -3 8 0 15 7 15 7 0
24 12 40 25 28 25 37 42 15 29 -8 -5 -7 0 2 11 8 10 14 27 12 38 -3 13 0 17 8
12 9 -5 10 -1 5 15 -6 18 -4 22 8 17 8 -3 20 0 26 6 9 9 14 9 20 -2 7 -11 10
-11 17 0 5 8 9 20 10 27 2 14 43 50 59 53 6 1 17 2 25 3 8 0 14 6 13 13 -1 6
11 17 27 24 16 8 34 24 41 36 7 13 19 23 26 23 7 0 16 7 19 15 4 8 12 15 20
15 8 0 22 8 32 18 25 24 91 57 98 49 4 -4 20 3 37 15 17 12 27 17 23 10 -11
-18 34 -15 54 3 9 8 28 16 43 17 15 1 29 8 31 15 7 16 46 17 46 1 0 -6 6 -4
13 7 11 14 21 16 49 11 25 -5 37 -3 40 6 3 7 11 13 19 14 49 2 101 20 120 40
12 13 31 24 41 24 10 0 18 4 18 10 0 5 23 19 50 32 32 15 48 28 45 36 -4 11 3
12 28 6 32 -7 57 -10 91 -13 15 -1 16 -4 7 -15 -10 -11 -8 -16 8 -21 21 -6 29
-25 11 -25 -5 0 -10 -4 -10 -10 0 -6 9 -6 25 0 20 8 23 7 18 -7 -5 -13 -1 -15
20 -9 16 4 27 2 27 -4 0 -5 -4 -10 -9 -10 -12 0 -21 -39 -10 -46 5 -3 9 0 9 6
0 6 5 8 12 4 8 -5 6 -11 -6 -20 -13 -9 -16 -19 -11 -35 5 -14 2 -25 -6 -30 -8
-5 -9 -9 -3 -9 10 0 10 -92 1 -145 -2 -11 4 -35 15 -53 22 -40 22 -42 3 -42
-11 0 -14 -7 -11 -22 3 -13 7 -35 10 -50 5 -19 1 -30 -11 -37 -18 -10 -16 -12
9 -15 7 0 19 -14 27 -31 8 -16 18 -33 24 -36 5 -4 3 -9 -4 -12 -10 -4 -10 -6
-1 -6 6 -1 12 -6 12 -12 0 -5 -5 -7 -11 -4 -6 4 -5 -3 3 -15 11 -19 11 -23 -1
-28 -9 -3 -3 -13 20 -34 19 -16 26 -26 17 -22 -35 12 -17 -17 49 -81 42 -41
75 -65 89 -65 13 0 26 -4 29 -10 8 -13 57 -34 127 -55 31 -9 62 -23 69 -31 6
-8 17 -14 23 -14 28 0 122 -79 152 -128 17 -28 34 -49 37 -45 4 3 7 0 7 -8 0
-8 7 -27 15 -43 8 -15 12 -33 9 -38 -4 -5 6 -32 20 -58 24 -45 25 -49 9 -58
-15 -9 -15 -12 -1 -34 10 -16 13 -30 8 -39 -6 -8 -5 -16 2 -20 6 -4 12 -26 15
-50 6 -68 5 -80 -8 -95 -7 -9 -13 -33 -14 -55 -3 -62 -3 -63 -22 -48 -15 12
-16 12 -10 -4 4 -10 7 -21 7 -23 0 -2 8 -4 17 -4 13 0 14 -3 5 -12 -7 -7 -12
-23 -12 -36 0 -15 -4 -21 -12 -17 -7 4 -2 -3 12 -14 14 -11 19 -21 13 -21 -7
0 -13 -7 -13 -15 0 -8 6 -15 13 -15 6 0 4 -5 -6 -11 -12 -7 -15 -17 -11 -34 3
-13 -1 -38 -9 -57 -8 -18 -18 -46 -22 -62 -3 -17 -14 -35 -23 -42 -16 -12 -16
-14 1 -31 16 -17 17 -17 17 1 0 13 5 16 18 11 9 -4 32 -11 50 -15 26 -6 32 -5
32 8 0 12 3 13 12 4 16 -16 61 -16 53 1 -4 6 0 4 9 -7 8 -10 19 -16 24 -13 26
17 162 31 162 17 0 -10 22 -7 63 9 20 8 27 8 27 -2 0 -9 2 -9 8 0 14 23 35 -4
43 -58 5 -29 13 -56 20 -59 15 -10 23 -166 9 -175 -6 -3 -8 -11 -4 -16 3 -5 0
-8 -8 -7 -7 2 -12 -3 -11 -9 2 -7 -6 -13 -18 -13 -14 0 -25 -12 -37 -37 -16
-38 -16 -38 -20 -10 -3 25 -22 40 -22 16 0 -5 -5 -7 -10 -4 -8 5 -7 11 1 21 9
11 9 14 -1 14 -7 0 -19 -8 -26 -17 -7 -10 -18 -18 -25 -18 -7 0 -13 -8 -15
-18 -4 -27 -10 -30 -32 -18 -33 18 -47 -11 -48 -103 -2 -119 -3 -127 -15 -96
-10 24 -11 24 -25 6 -22 -31 -18 -47 11 -42 30 6 32 -5 5 -29 -11 -10 -17 -22
-12 -27 13 -13 -5 -137 -24 -166 -12 -18 -18 -53 -20 -116 -3 -88 -8 -146 -19
-193 -3 -13 -1 -23 4 -23 5 0 12 -8 16 -19 6 -21 -30 -91 -48 -91 -9 0 -9 -2
-1 -8 13 -9 14 -42 1 -42 -6 0 -6 -5 0 -12 11 -14 14 -44 7 -67 -3 -10 -8 -10
-17 -2 -11 8 -13 0 -14 -41 -1 -42 3 -51 18 -55 14 -4 18 -11 14 -24 -4 -12
-1 -19 7 -20 7 0 4 -4 -7 -9 -19 -8 -19 -9 -1 -9 14 -1 16 -4 8 -13 -15 -18
-14 -24 4 -59 8 -17 11 -28 5 -25 -6 4 -12 2 -12 -3 -3 -20 -5 -26 -17 -49 -7
-12 -10 -27 -7 -32 3 -6 1 -10 -4 -10 -6 0 -11 5 -11 12 0 6 -3 8 -7 4 -10 -9
-11 -116 -2 -116 5 0 6 -7 3 -15 -5 -11 -11 -12 -25 -5 -15 9 -17 7 -13 -5 4
-9 9 -14 12 -11 2 3 13 1 23 -5 15 -8 18 -16 12 -42 -4 -18 -7 -48 -7 -68 0
-26 -4 -35 -13 -32 -7 3 -13 1 -13 -5 0 -5 7 -13 16 -16 8 -3 12 -11 9 -16 -4
-6 -1 -18 7 -27 11 -15 10 -16 -9 -11 -16 4 -23 2 -23 -8 0 -7 6 -11 14 -8 7
3 26 -6 41 -20 20 -19 25 -31 22 -55 -3 -16 -8 -35 -12 -40 -3 -6 -1 -19 4
-28 6 -10 11 -13 12 -8 0 6 3 21 5 35 2 14 4 79 4 145 0 111 -8 152 -24 126
-4 -6 -4 -11 1 -11 13 0 10 -143 -4 -147 -7 -3 -13 15 -17 49 -9 86 -9 101 -2
138 4 19 9 49 11 65 2 17 4 33 4 38 2 14 20 7 25 -10 2 -10 4 0 3 21 -1 22 3
41 9 43 14 5 14 5 15 -184 0 -78 4 -166 9 -195 6 -41 5 -58 -6 -76 -8 -12 -12
-27 -9 -32 3 -5 1 -11 -4 -14 -6 -4 -6 -19 -1 -39 5 -17 11 -72 14 -121 6 -97
19 -127 31 -74 6 26 9 29 12 13 11 -47 43 -40 43 10 0 16 -2 17 -10 5 -8 -12
-10 -12 -16 3 -4 10 -12 16 -20 13 -9 -3 -11 3 -8 21 6 34 7 37 5 43 -2 3 -4
21 -6 40 -4 28 -2 31 6 18 12 -22 31 -24 23 -3 -3 8 1 24 10 37 20 28 20 33 0
52 -14 15 -14 16 1 16 13 0 16 6 12 21 -3 12 -1 33 4 47 7 19 6 29 -4 39 -10
11 -12 25 -7 55 10 51 3 73 -16 57 -22 -18 -34 -1 -34 50 0 38 6 54 26 76 14
15 28 25 31 21 3 -3 -1 -14 -11 -25 -16 -17 -16 -19 4 -24 17 -4 20 0 20 23 0
16 3 37 7 47 7 17 6 17 -11 1 -24 -25 -29 -23 -22 9 3 16 7 52 8 80 2 29 6 53
11 53 12 0 8 45 -5 59 -10 11 -10 13 0 7 8 -5 12 0 12 13 0 13 7 21 18 21 16
1 16 2 -1 14 -16 12 -17 18 -7 36 9 18 9 21 0 15 -10 -6 -11 1 -6 28 6 34 6
36 -19 31 -23 -4 -26 -2 -20 17 5 15 4 19 -4 15 -7 -5 -10 1 -7 16 3 13 5 27
5 31 1 5 6 5 12 2 6 -4 8 -12 6 -19 -9 -23 10 -50 37 -53 24 -3 26 -1 20 22
-4 17 -2 27 9 31 16 6 21 60 7 79 -9 13 8 75 21 75 6 0 8 4 5 9 -3 4 -1 22 4
39 6 21 5 31 -2 29 -6 -1 -13 4 -16 12 -2 8 0 11 6 7 5 -3 12 8 15 27 2 17 1
33 -4 35 -4 2 -4 14 1 27 5 12 6 26 2 30 -4 4 -2 6 3 5 21 -5 29 1 15 10 -8 5
-10 10 -3 10 10 0 9 18 -3 58 -5 16 -5 23 -1 20 9 -7 37 26 33 38 -2 6 -2 15
2 19 11 10 9 69 -2 78 -6 5 -2 6 9 3 23 -7 24 -3 25 92 0 30 -2 58 -5 63 -3 4
4 18 17 31 12 12 21 32 20 43 -1 11 13 37 32 59 21 23 37 55 41 78 4 21 10 38
15 38 4 0 15 16 25 35 9 20 29 50 43 68 15 18 39 49 52 69 14 21 36 42 50 47
28 10 120 88 120 102 0 4 -14 -5 -30 -21 -17 -17 -33 -30 -36 -30 -8 0 12 33
35 57 12 12 21 25 21 29 0 3 9 17 19 30 13 17 21 20 24 12 4 -10 6 -10 6 -1 1
7 7 10 15 7 11 -4 13 0 9 15 -6 24 51 96 113 141 56 40 82 104 67 161 -11 42
-6 92 8 83 5 -3 6 8 3 24 -3 16 1 53 10 82 9 30 16 69 16 87 0 18 4 33 9 33
17 0 20 62 5 119 -13 53 -13 67 1 133 20 97 20 96 -19 160 -23 39 -33 68 -33
97 0 22 3 38 8 36 4 -3 11 0 15 6 4 7 3 9 -3 6 -6 -4 -12 24 -16 76 -3 45 -13
104 -22 131 -17 50 -22 161 -9 205 5 17 4 22 -4 17 -9 -5 -9 0 -1 21 14 35 14
265 0 291 -8 14 -8 37 0 78 12 62 7 111 -16 184 -8 25 -22 75 -32 112 -10 40
-21 62 -25 55 -4 -7 -8 -10 -9 -7 0 3 -3 14 -5 25 -2 11 -6 37 -8 57 -3 37
-45 105 -71 115 -8 2 -17 19 -21 36 -3 18 -13 45 -22 62 -16 31 -97 115 -111
115 -5 0 -14 7 -21 15 -6 8 -15 14 -18 13 -4 -1 -19 4 -34 10 -33 13 -37 32
-8 32 11 0 19 -5 18 -11 -2 -6 3 -14 10 -16 11 -4 12 -1 3 16 -7 11 -20 21
-30 21 -9 0 -28 11 -40 24 -17 18 -21 33 -18 65 2 22 6 44 10 48 4 3 7 15 7
25 0 10 4 18 10 18 14 0 -28 67 -46 74 -8 3 -13 10 -9 16 3 5 -8 16 -25 25
-34 17 -114 93 -121 113 -2 7 -11 14 -19 16 -8 1 -26 8 -40 16 -14 8 -29 13
-34 12 -17 -5 -55 28 -50 43 4 10 0 15 -12 15 -16 0 -17 2 -4 10 11 7 0 10
-37 10 -40 0 -53 4 -53 15 0 8 -8 24 -17 34 -10 11 -26 30 -35 44 -19 28 -70
57 -100 57 -10 0 -30 7 -43 16 -13 9 -29 13 -34 9 -6 -3 -37 8 -70 25 -33 18
-65 29 -70 26 -5 -3 -7 4 -5 16 4 20 3 21 -7 7 -11 -15 -17 -14 -68 4 -31 11
-60 23 -65 28 -6 5 -19 9 -30 9 -18 0 -19 -2 -6 -11 12 -9 12 -10 -3 -5 -10 3
-26 6 -35 7 -12 0 -13 2 -4 6 18 7 -35 63 -60 63 -10 0 -18 5 -18 10 0 6 -11
10 -24 10 -13 0 -30 7 -37 17 -15 17 -126 73 -145 73 -7 0 -43 18 -80 40 -127
75 -205 89 -389 70z m531 -146 c37 -15 73 -48 74 -68 0 -11 -49 21 -78 50 -13
14 -27 22 -33 19 -5 -4 -9 -1 -9 4 0 14 0 14 46 -5z m164 -104 c0 -5 -9 -10
-21 -10 -11 0 -17 5 -14 10 3 6 13 10 21 10 8 0 14 -4 14 -10z m-70 -20 c0 -5
-5 -10 -11 -10 -5 0 -7 5 -4 10 3 6 8 10 11 10 2 0 4 -4 4 -10z m110 -19 c0
-4 -13 -8 -29 -7 -16 1 -27 4 -24 9 6 10 53 9 53 -2z m-1330 -18 c-1 -16 -46
-87 -62 -97 -12 -7 -24 -6 -42 4 -14 7 -26 17 -26 21 0 16 53 70 65 65 6 -2
18 0 26 5 17 11 39 12 39 2z m-143 -99 c-3 -3 -12 -4 -19 -1 -8 3 -5 6 6 6 11
1 17 -2 13 -5z m2148 -219 c0 -5 -10 -11 -22 -13 -16 -2 -23 2 -23 13 0 11 7
15 23 13 12 -2 22 -7 22 -13z m159 -116 c-3 -5 -13 -9 -22 -8 -11 0 -12 2 -4
6 6 2 10 9 7 14 -4 5 1 6 9 3 9 -3 13 -10 10 -15z m165 -138 l16 -25 -28 18
c-15 11 -38 16 -52 14 -14 -3 -25 -2 -25 2 0 30 67 24 89 -9z m194 -375 c18
-13 27 -29 27 -48 0 -15 5 -28 10 -28 6 0 10 -5 10 -12 0 -17 -49 31 -56 56
-3 12 -16 32 -28 45 -22 25 -10 21 37 -13z m147 -214 c0 -15 -2 -15 -10 -2
-13 20 -13 33 0 25 6 -3 10 -14 10 -23z m-2960 -836 c0 -3 -4 -8 -10 -11 -5
-3 -10 -1 -10 4 0 6 5 11 10 11 6 0 10 -2 10 -4z m20 -60 c0 -9 -7 -12 -20 -9
-11 3 -17 9 -14 14 8 14 34 10 34 -5z m2868 -108 c25 -24 92 -133 128 -208 43
-92 56 -198 39 -315 -4 -27 -8 -138 -9 -245 -1 -107 -6 -217 -10 -245 -9 -52
-62 -164 -83 -178 -7 -4 -13 -15 -13 -22 0 -8 -4 -15 -10 -15 -5 0 -10 -8 -10
-17 0 -10 -21 -42 -47 -71 -48 -55 -96 -87 -113 -77 -6 3 -10 3 -10 -2 0 -4
-11 -8 -24 -8 -18 0 -26 7 -29 23 -3 14 1 22 9 22 8 0 14 4 14 10 0 9 -21 5
-45 -9 -6 -3 0 4 14 16 20 17 23 25 14 34 -9 9 -8 15 2 25 10 11 11 21 3 46
-20 62 -41 99 -49 86 -8 -12 -35 5 -66 41 -7 7 -22 14 -34 15 -12 0 -25 8 -27
16 -5 13 -3 13 11 1 10 -7 17 -10 18 -5 5 43 5 84 -1 84 -4 0 -7 15 -6 33 1
19 -8 45 -21 64 -13 17 -18 33 -13 35 7 2 7 15 1 36 -6 21 -6 32 0 32 6 0 7 5
4 10 -3 6 -1 10 5 10 6 0 8 5 5 10 -3 6 -1 10 5 10 6 0 9 4 5 9 -12 21 18 22
38 2 20 -20 21 -32 22 -175 0 -85 3 -157 6 -160 3 -4 21 0 40 8 19 9 30 15 25
16 -5 0 -3 6 3 14 16 19 24 54 22 99 -2 47 21 73 72 82 20 4 40 11 43 16 9 16
24 10 33 -13 9 -23 9 -23 16 5 4 15 11 27 16 27 12 0 31 47 34 85 1 17 6 63
10 103 8 81 -1 155 -15 131 -6 -9 -8 0 -5 26 5 36 1 45 -37 88 -24 26 -50 47
-58 47 -13 0 -13 1 0 10 13 8 12 10 -2 10 -10 0 -17 3 -17 8 5 30 -2 44 -21
39 -20 -5 -45 15 -33 26 3 4 2 7 -3 7 -6 0 -15 -5 -20 -10 -8 -8 -15 -6 -24 5
-7 8 -21 15 -31 15 -26 0 -24 23 5 69 25 39 101 87 112 69 3 -5 12 -7 19 -4 8
3 23 -15 39 -47 74 -152 86 -180 86 -197 0 -10 4 -21 10 -25 5 -3 14 -22 21
-43 15 -49 26 -211 15 -215 -5 -2 -3 -13 5 -25 10 -16 11 -29 3 -49 -5 -16 -7
-39 -4 -53 4 -14 2 -31 -3 -37 -5 -7 -7 -13 -3 -13 4 0 -9 -29 -29 -65 -39
-73 -43 -95 -17 -95 14 0 15 2 2 10 -10 6 -11 10 -2 10 6 0 12 8 12 19 0 21
25 45 38 37 13 -8 11 28 -2 36 -7 5 -5 8 5 8 33 0 41 47 55 320 2 41 3 81 3
88 1 97 -33 216 -88 311 -17 28 -31 55 -31 60 0 4 -18 18 -41 30 -35 20 -46
22 -82 13 -23 -6 -43 -9 -45 -8 -2 2 8 16 22 31 15 16 26 25 26 21 0 -4 8 -3
17 3 24 13 52 6 81 -21z m-335 -335 c-4 -10 -9 -20 -12 -23 -3 -3 -19 -33 -35
-67 -25 -54 -28 -69 -24 -127 4 -48 2 -66 -8 -70 -17 -7 -20 13 -13 110 5 77
7 85 47 138 44 58 56 68 45 39z m-2858 -23 c4 -6 -7 -10 -24 -10 -17 0 -31 5
-31 10 0 6 11 10 24 10 14 0 28 -4 31 -10z m2948 -24 c9 -7 17 -19 17 -26 0
-7 6 -10 14 -7 17 7 52 -28 37 -37 -14 -9 -2 -36 14 -30 7 3 16 1 20 -5 3 -6
1 -11 -4 -11 -6 0 -11 -7 -11 -17 0 -15 -1 -15 -18 0 -38 35 -172 47 -172 16
0 -6 -7 -17 -15 -25 -13 -14 -15 -13 -15 2 0 10 8 36 18 58 11 23 24 53 30 69
9 20 18 27 39 27 16 0 36 -7 46 -14z m-2918 -26 c-3 -5 -13 -10 -21 -10 -8 0
-12 5 -9 10 3 6 13 10 21 10 8 0 12 -4 9 -10z m3446 -115 c8 -62 -1 -119 -16
-95 -10 16 -17 139 -8 153 9 15 16 -2 24 -58z m-611 -69 c0 -3 -4 -8 -10 -11
-5 -3 -10 -1 -10 4 0 6 5 11 10 11 6 0 10 -2 10 -4z m73 -28 c12 -13 27 -21
32 -20 6 2 7 0 3 -4 -4 -4 -3 -13 3 -21 9 -10 8 -17 -1 -28 -10 -12 -10 -15 4
-15 12 0 16 -10 16 -44 0 -49 -7 -76 -21 -76 -5 0 -9 6 -9 14 0 8 -5 18 -10
21 -7 4 -9 -2 -4 -19 3 -14 2 -26 -3 -26 -6 0 -11 15 -12 33 -3 54 -4 57 -11
57 -4 0 -13 13 -20 30 -7 16 -21 32 -32 36 -16 5 -18 11 -13 32 14 56 41 66
78 30z m-2718 -8 c3 -5 0 -10 -7 -10 -8 0 -15 -11 -16 -25 -1 -19 5 -28 24
-35 34 -13 36 -13 29 9 -3 11 0 23 7 27 7 4 10 4 6 -1 -4 -4 0 -21 10 -37 14
-23 14 -32 4 -48 -11 -17 -10 -20 7 -20 20 0 22 -20 7 -67 -10 -30 -33 -37
-33 -9 0 33 -33 66 -65 66 -16 0 -28 5 -28 10 0 6 5 10 11 10 5 0 7 5 4 10 -3
6 -1 10 5 10 6 0 10 10 8 23 -2 13 -10 22 -20 22 -29 0 -32 14 -4 25 14 5 26
13 25 17 -5 30 12 45 26 23z m2624 -89 c0 -11 -2 -12 -6 -3 -2 6 -9 10 -14 7
-5 -4 -6 2 -2 11 5 13 2 16 -8 12 -17 -7 -37 13 -31 31 6 17 62 -37 61 -58z
m-2609 55 c0 -2 -7 -9 -15 -16 -13 -11 -14 -10 -9 4 5 14 24 23 24 12z m204
-21 c-12 -18 -15 -38 -11 -66 4 -29 1 -42 -9 -46 -20 -8 -17 -24 4 -16 14 5
14 3 -3 -14 -11 -11 -23 -19 -27 -16 -5 2 -8 -5 -8 -17 0 -23 24 -53 34 -43 3
4 6 1 6 -5 0 -7 -10 -10 -22 -8 -13 3 -26 5 -31 5 -4 1 -15 17 -24 36 -9 19
-23 35 -30 35 -7 0 -13 5 -13 11 0 5 4 7 10 4 5 -3 12 4 14 17 9 37 2 78 -12
78 -23 0 -7 23 19 27 13 2 29 9 34 16 6 7 23 13 38 12 15 -1 30 2 33 7 3 4 7
8 10 8 2 0 -3 -11 -12 -25z m36 5 c0 -11 -4 -20 -9 -20 -5 0 -7 9 -4 20 3 11
7 20 9 20 2 0 4 -9 4 -20z m-321 -36 c4 3 13 1 21 -5 11 -6 6 -9 -17 -9 -26 0
-31 3 -26 17 4 11 8 13 11 5 2 -7 7 -10 11 -8z m-135 -108 c-6 -16 -8 -17 -16
-2 -11 19 0 42 13 29 6 -6 7 -18 3 -27z m203 19 c0 -18 -19 -15 -25 3 -2 7 3
12 11 12 7 0 14 -7 14 -15z m-149 -27 c3 -16 -26 -33 -37 -22 -3 4 -1 9 6 11
7 2 9 11 6 20 -4 11 -2 14 8 11 8 -3 15 -12 17 -20z m62 -8 c-6 -11 -13 -20
-15 -20 -3 0 -5 9 -5 20 0 11 7 20 15 20 13 0 14 -4 5 -20z m1350 -21 c0 -5
-7 -9 -16 -9 -12 0 -14 -3 -6 -13 6 -7 13 -26 16 -42 3 -17 12 -35 20 -41 10
-7 12 -15 5 -25 -7 -11 -9 -11 -9 5 0 12 -5 16 -15 12 -8 -3 -15 -1 -15 4 0 6
-6 10 -13 10 -25 0 -47 24 -37 40 8 12 11 13 19 1 6 -9 11 -10 15 -2 4 6 2 11
-3 11 -17 0 -13 37 5 54 16 16 34 13 34 -5z m-190 -33 c0 -3 -4 -8 -10 -11 -5
-3 -10 -1 -10 4 0 6 5 11 10 11 6 0 10 -2 10 -4z m229 -34 l9 -27 1 28 c1 36
12 34 33 -8 l17 -34 -37 5 c-35 4 -56 20 -46 35 2 4 0 10 -6 14 -15 10 -12 25
4 19 8 -3 19 -18 25 -32z m48 -114 c-3 -8 -6 -5 -6 6 -1 11 2 17 5 13 3 -3 4
-12 1 -19z m-1862 -68 c-4 -6 -1 -17 5 -25 7 -8 10 -28 8 -45 -2 -16 0 -32 6
-34 6 -2 4 -5 -5 -5 -9 -1 -19 8 -22 19 -5 20 -27 28 -27 10 0 -17 -24 -11
-37 8 -6 11 -8 24 -3 31 5 9 10 10 14 2 11 -17 36 -13 30 4 -4 8 -11 12 -16 9
-6 -4 -5 3 1 15 7 11 21 21 32 21 11 0 17 -5 14 -10z m845 -80 c7 0 10 -8 7
-20 -3 -11 -1 -22 4 -25 4 -3 5 -13 2 -22 -5 -12 -3 -14 8 -9 8 5 3 -2 -11
-15 -14 -13 -21 -21 -14 -16 20 13 23 -17 4 -41 -10 -12 -20 -22 -22 -22 -7 0
-1 115 7 139 5 15 2 21 -9 21 -10 0 -16 9 -16 23 1 20 2 21 14 5 7 -10 19 -18
26 -18z m2870 -54 c-10 -23 -29 -47 -40 -54 -28 -17 -25 1 4 23 18 14 27 32
32 69 6 45 8 48 16 27 6 -17 3 -35 -12 -65z m-2986 32 c7 -5 6 -8 -4 -8 -11 0
-12 -2 -2 -8 9 -6 10 -19 4 -48 -12 -58 -24 -47 -28 25 -3 63 7 107 14 66 3
-11 9 -23 16 -27z m-111 2 c-3 -12 -8 -19 -11 -16 -5 6 5 36 12 36 2 0 2 -9
-1 -20z m157 -45 c0 -8 -4 -15 -10 -15 -5 0 -7 7 -4 15 4 8 8 15 10 15 2 0 4
-7 4 -15z m-3 -47 c-3 -8 -6 -5 -6 6 -1 11 2 17 5 13 3 -3 4 -12 1 -19z m260
10 c10 24 33 13 33 -17 0 -20 6 -32 19 -36 10 -3 21 -15 24 -25 3 -12 11 -18
19 -15 9 4 15 0 15 -9 0 -8 -4 -13 -9 -10 -5 3 -18 -2 -29 -12 -11 -10 -19
-12 -19 -6 0 21 -19 12 -36 -17 -14 -24 -20 -27 -30 -16 -7 7 -12 22 -9 33 3
16 -1 20 -15 17 -17 -3 -37 22 -25 33 3 3 5 0 5 -6 0 -6 6 -9 14 -6 11 4 12
12 3 39 -5 19 -14 32 -18 29 -5 -3 -6 2 -3 10 7 18 36 26 47 11 6 -7 10 -6 14
3z m-380 -60 c-3 -7 -5 -2 -5 12 0 14 2 19 5 13 2 -7 2 -19 0 -25z m623 -8 c0
-10 -6 -21 -12 -23 -8 -3 -7 -6 4 -6 9 -1 20 -5 23 -11 7 -11 -17 -61 -39 -79
-12 -11 -15 -8 -14 17 1 16 -3 35 -7 43 -16 25 -11 58 8 63 11 2 16 9 12 15
-3 7 0 8 9 5 9 -3 16 -14 16 -24z m-553 -6 c1 -5 -1 -15 -6 -23 -12 -18 -32
-5 -24 16 5 12 3 14 -7 8 -8 -5 -11 -4 -7 3 8 12 40 9 44 -4z m468 -62 c-3
-14 -2 -21 4 -18 5 3 14 -7 19 -23 9 -25 8 -29 -4 -24 -8 3 -14 11 -14 19 0 8
-5 13 -11 12 -17 -4 -25 53 -13 92 l8 25 8 -30 c5 -17 6 -41 3 -53z m-345 28
c0 -5 -6 -10 -12 -10 -9 0 -8 -4 2 -10 8 -5 10 -10 4 -10 -16 0 -23 10 -17 26
6 16 23 19 23 4z m290 -30 c0 -5 -4 -10 -9 -10 -6 0 -13 5 -16 10 -3 6 1 10 9
10 9 0 16 -4 16 -10z m-340 -30 c0 -5 -7 -7 -15 -4 -8 4 -15 8 -15 10 0 2 7 4
15 4 8 0 15 -4 15 -10z m330 -24 c0 -9 -30 -14 -35 -6 -4 6 3 10 14 10 12 0
21 -2 21 -4z m684 -29 c4 -19 3 -26 -4 -22 -5 3 -10 18 -10 32 0 32 5 28 14
-10z m-804 13 c0 -5 -7 -7 -15 -4 -8 4 -15 8 -15 10 0 2 7 4 15 4 8 0 15 -4
15 -10z m150 -53 c0 -16 -18 3 -23 25 -6 22 -5 22 8 4 8 -11 15 -24 15 -29z
m-355 12 c4 -11 4 -23 1 -26 -3 -4 -6 1 -6 10 0 9 -8 21 -17 26 -16 9 -17 10
-1 11 9 0 20 -9 23 -21z m212 -14 c-1 -19 3 -33 8 -32 6 1 9 10 8 20 -2 9 2
17 7 17 15 0 37 -41 44 -80 l7 -35 -16 28 c-15 26 -45 38 -45 18 0 -5 -8 -11
-17 -13 -16 -3 -16 -4 0 -20 30 -30 16 -49 -29 -40 -23 4 -39 38 -23 48 6 3 7
14 4 24 -4 12 2 27 14 39 19 19 12 39 -9 26 -5 -3 -10 1 -10 9 0 13 16 22 47
25 7 1 11 -12 10 -34z m303 0 c0 -8 -4 -15 -10 -15 -5 0 -10 7 -10 15 0 8 5
15 10 15 6 0 10 -7 10 -15z m40 1 c0 -3 -4 -8 -10 -11 -5 -3 -10 -1 -10 4 0 6
5 11 10 11 6 0 10 -2 10 -4z m458 -13 c-2 -9 -10 -19 -18 -21 -12 -4 -13 -3
-3 10 7 8 10 18 6 21 -3 4 -1 7 6 7 7 0 11 -8 9 -17z m-542 -18 c-14 -14 -16
-14 -16 -2 0 9 6 17 13 20 19 7 21 -1 3 -18z m108 -83 c3 -5 -2 -9 -10 -9 -10
0 -14 7 -10 20 2 10 2 16 -1 13 -4 -3 -13 0 -21 7 -13 10 -14 9 -3 -12 8 -15
9 -21 2 -17 -16 10 -34 -3 -23 -17 5 -7 12 -24 16 -39 3 -16 11 -28 16 -28 6
0 9 -15 9 -32 -1 -20 -3 -25 -6 -14 -6 21 -73 92 -73 76 0 -14 -33 -13 -48 2
-9 9 -12 9 -12 0 0 -7 5 -12 11 -12 8 0 7 -5 -2 -16 -11 -13 -14 -13 -17 -3
-3 8 -11 29 -20 48 -12 25 -13 38 -4 51 6 10 7 21 2 26 -5 5 -5 15 0 24 8 13
10 13 14 0 3 -8 6 -28 8 -43 2 -15 8 -27 13 -27 6 1 9 9 7 18 -3 14 -1 13 12
-3 15 -19 17 -17 20 18 1 6 -5 12 -13 12 -8 0 -16 6 -18 13 -6 17 12 15 31 -4
9 -8 16 -12 16 -8 0 4 3 5 6 2 3 -4 0 -16 -6 -28 -7 -13 -7 -20 -2 -16 6 3 12
3 15 -1 2 -5 3 -3 1 4 -3 13 22 37 49 46 9 4 17 12 16 19 0 10 -2 10 -6 1 -2
-7 -9 -13 -15 -13 -6 0 -3 9 8 21 l19 21 7 -45 c3 -25 9 -50 12 -55z m-833
-39 c13 -16 12 -17 -3 -4 -10 7 -18 15 -18 17 0 8 8 3 21 -13z m-32 -14 c-16
-10 -23 -4 -14 10 3 6 11 8 17 5 6 -4 5 -9 -3 -15z m485 -11 c-3 -4 -9 -8 -15
-8 -5 0 -9 4 -9 8 0 5 7 9 15 9 8 0 12 -4 9 -9z m-434 -20 c0 -19 -2 -20 -10
-8 -13 19 -13 30 0 30 6 0 10 -10 10 -22z m417 -20 c-3 -8 -6 -5 -6 6 -1 11 2
17 5 13 3 -3 4 -12 1 -19z m419 -14 c-5 -17 -3 -23 4 -19 5 3 10 1 10 -4 0 -6
-7 -11 -16 -11 -8 0 -13 -4 -10 -9 4 -5 1 -11 -5 -13 -5 -2 -7 -11 -3 -21 6
-17 8 -16 18 4 13 25 32 23 28 -4 -2 -10 2 -25 9 -33 6 -8 9 -17 5 -21 -3 -3
-6 -1 -6 5 0 7 -11 12 -25 12 -15 0 -28 7 -32 18 -4 9 -11 20 -16 23 -5 4 -5
14 1 25 5 11 15 31 21 47 13 34 25 35 17 1z m-423 -19 c-3 -9 -8 -14 -10 -11
-3 3 -2 9 2 15 9 16 15 13 8 -4z m493 -75 c0 -21 -11 -26 -21 -10 -7 11 2 30
13 30 4 0 8 -9 8 -20z m-1056 -81 c0 -10 -4 -19 -10 -19 -5 0 -10 -8 -10 -17
0 -14 -2 -15 -9 -4 -5 7 -4 25 2 41 12 31 27 31 27 -1z m190 -26 c0 -28 -3
-34 -10 -23 -13 20 -13 60 0 60 6 0 10 -17 10 -37z m763 -43 c4 -30 3 -38 -3
-25 -8 19 -14 83 -6 74 2 -2 6 -24 9 -49z m-831 -15 c-2 -14 -9 -25 -14 -25
-5 0 -8 6 -5 13 2 6 0 20 -5 30 -5 9 -6 23 -2 29 11 18 32 -18 26 -47z m63 5
c3 -5 1 -10 -4 -10 -6 0 -11 5 -11 10 0 6 2 10 4 10 3 0 8 -4 11 -10z m6 -57
c8 -22 7 -30 -5 -39 -20 -14 -21 -35 -2 -28 8 3 17 1 21 -5 3 -6 1 -12 -4 -12
-6 -1 -16 -2 -23 -3 -6 0 -13 -7 -16 -14 -2 -7 0 -12 5 -11 22 4 25 -2 7 -16
-10 -8 -13 -15 -7 -15 10 0 10 -6 1 -25 -8 -19 -8 -28 2 -40 7 -8 8 -15 3 -15
-5 0 -9 -9 -10 -20 -1 -11 4 -20 10 -20 7 0 6 -4 -3 -10 -13 -9 -13 -12 3 -24
21 -16 22 -30 1 -50 -14 -14 -14 -16 0 -16 23 0 33 -50 12 -65 -19 -14 -21
-26 -3 -23 6 2 12 -6 13 -17 1 -11 5 -33 10 -50 4 -16 7 -39 6 -50 -2 -17 0
-16 12 5 14 22 15 23 15 5 0 -11 -6 -29 -14 -39 -24 -32 -20 -48 10 -34 13 6
22 15 19 19 -3 5 1 6 9 3 18 -6 10 -44 -11 -60 -11 -8 -12 -13 -4 -18 7 -4 12
-16 12 -27 0 -10 5 -19 11 -19 5 0 7 -6 3 -12 -4 -7 2 -5 13 5 19 17 20 16 18
-19 0 -19 3 -38 7 -40 4 -3 3 -15 -3 -26 -14 -26 -20 -98 -8 -98 5 0 9 -11 9
-25 0 -14 -4 -25 -10 -25 -5 0 -10 -5 -10 -11 0 -5 5 -7 10 -4 6 3 10 1 10 -4
0 -6 -4 -11 -10 -11 -5 0 -10 -4 -10 -9 0 -5 9 -7 21 -4 19 5 20 2 17 -33 -3
-34 -8 -40 -33 -44 -37 -7 -77 -1 -69 11 3 5 1 9 -5 9 -16 0 -30 -33 -21 -50
5 -9 3 -31 -5 -53 -7 -21 -9 -40 -4 -43 11 -6 12 -54 2 -53 -33 5 -49 -3 -48
-25 0 -26 15 -50 15 -25 0 17 39 21 41 4 0 -5 2 -26 4 -46 3 -45 13 -63 29
-52 7 4 3 0 -8 -10 -10 -10 -25 -16 -33 -13 -7 3 -13 1 -13 -4 0 -6 7 -10 15
-10 20 0 19 -36 0 -44 -11 -4 -13 -10 -6 -23 5 -10 17 -44 27 -75 10 -31 21
-55 26 -52 4 3 5 -3 1 -12 -4 -11 -2 -15 4 -11 16 10 34 -17 27 -38 -6 -16 -8
-16 -16 -1 -5 9 -14 14 -19 10 -6 -3 -10 0 -8 7 3 26 -1 39 -12 39 -7 0 -9
-10 -5 -25 4 -14 2 -25 -4 -25 -5 0 -10 6 -10 14 0 8 -7 17 -16 20 -10 4 -14
14 -11 26 3 13 0 20 -8 20 -8 0 -11 8 -8 20 3 11 0 20 -6 20 -5 0 -8 -7 -5
-15 4 -10 0 -15 -11 -15 -11 0 -15 -5 -11 -15 3 -8 1 -15 -4 -15 -13 0 -13 16
1 43 l12 22 -24 -20 -24 -20 19 23 c11 12 28 22 39 22 21 0 21 0 1 15 -10 8
-14 15 -9 15 6 0 5 4 -2 8 -10 6 -9 14 2 35 7 15 11 27 7 27 -4 0 1 5 11 11
14 8 16 14 7 24 -7 8 -9 19 -6 24 4 5 2 12 -4 16 -5 3 -10 13 -10 21 0 8 3 13
8 11 4 -3 14 2 22 11 13 14 13 15 -1 10 -25 -10 -39 26 -38 99 0 37 -2 79 -5
91 -4 17 -1 22 8 19 9 -4 12 2 8 19 -2 13 -9 24 -15 24 -6 0 -2 7 9 15 11 8
14 15 7 15 -16 0 -17 32 -1 48 9 9 8 21 -2 51 -7 22 -10 49 -7 60 2 11 -4 45
-14 77 -14 43 -16 60 -8 70 9 11 8 18 -1 30 -13 15 -14 46 -6 156 2 32 1 56
-3 54 -4 -3 -8 5 -8 17 -2 17 0 19 7 7 11 -17 12 -13 14 52 1 25 -1 45 -4 43
-3 -2 -5 36 -6 83 0 68 3 90 15 99 13 10 14 12 2 13 -12 0 -12 3 -3 12 10 10
15 10 22 -2 5 -8 10 -10 10 -5 0 6 -9 25 -20 43 -11 17 -16 32 -12 32 4 0 1 4
-6 8 -9 6 -8 13 5 28 10 10 18 27 19 37 3 75 4 77 24 77 13 0 24 -10 31 -27z
m1002 0 c2 -5 1 -19 -4 -33 -4 -16 -7 -19 -8 -7 -1 9 -1 20 0 23 0 4 -5 11
-13 15 -10 7 -9 9 4 9 9 0 19 -3 21 -7z m-99 -29 c5 -14 4 -15 -9 -4 -12 10
-15 10 -15 0 0 -8 -3 -11 -6 -7 -7 7 4 27 16 27 4 0 11 -7 14 -16z m131 6 c-3
-5 1 -10 9 -10 9 0 16 -7 16 -16 0 -14 -1 -14 -16 0 -8 9 -20 16 -25 16 -5 0
-9 5 -9 10 0 6 7 10 16 10 8 0 12 -4 9 -10z m-1184 -65 c11 -28 19 -59 19 -70
0 -19 0 -19 -20 0 -11 11 -21 35 -23 53 -2 17 -7 35 -10 39 -11 11 -8 35 4 31
6 -2 20 -26 30 -53z m2576 23 c-3 -8 -6 -5 -6 6 -1 11 2 17 5 13 3 -3 4 -12 1
-19z m-57 -8 c0 -5 -5 -10 -11 -10 -5 0 -7 5 -4 10 3 6 8 10 11 10 2 0 4 -4 4
-10z m-1362 -66 c-3 -47 -14 -43 -14 5 0 22 4 37 8 35 5 -3 7 -21 6 -40z
m1361 25 c-16 -10 -23 -4 -14 10 3 6 11 8 17 5 6 -4 5 -9 -3 -15z m-1429 -40
c0 -5 -4 -9 -10 -9 -5 0 -10 7 -10 16 0 8 5 12 10 9 6 -3 10 -10 10 -16z m36
-16 c-10 -10 -19 5 -10 18 6 11 8 11 12 0 2 -7 1 -15 -2 -18z m-122 -11 c3 -5
-1 -9 -9 -9 -8 0 -12 4 -9 9 3 4 7 8 9 8 2 0 6 -4 9 -8z m86 -13 c0 -14 -17
-10 -23 5 -4 10 -1 13 9 9 7 -3 14 -9 14 -14z m1324 -14 c3 -8 1 -15 -4 -15
-6 0 -10 7 -10 15 0 8 2 15 4 15 2 0 6 -7 10 -15z m-1311 -48 c-4 -6 -1 -7 7
-2 10 6 11 2 6 -19 -3 -14 -2 -26 3 -26 5 0 11 -9 14 -20 6 -23 -8 -28 -16 -6
-3 8 -14 12 -25 10 -10 -3 -24 2 -31 10 -9 11 -10 16 -2 16 6 0 11 11 11 25 0
14 -4 25 -10 25 -5 0 -10 5 -10 11 0 6 9 8 21 4 16 -5 20 -4 15 6 -4 8 -1 5 8
-5 8 -10 13 -23 9 -29z m173 2 c-1 -16 2 -29 8 -29 5 0 6 -3 3 -6 -3 -4 -2
-15 4 -25 7 -15 7 -19 -3 -17 -9 2 -15 -15 -19 -52 -7 -66 -9 -60 -15 50 -3
47 -10 90 -15 96 -7 8 -6 14 3 17 24 8 36 -4 34 -34z m-1379 -1 c-3 -8 -6 -5
-6 6 -1 11 2 17 5 13 3 -3 4 -12 1 -19z m315 -3 c-5 -30 -26 -28 -30 3 -3 16
2 22 16 22 15 0 18 -5 14 -25z m745 3 c-3 -8 -6 -5 -6 6 -1 11 2 17 5 13 3 -3
4 -12 1 -19z m85 -68 c3 -34 1 -40 -15 -40 -10 0 -27 -5 -38 -10 -15 -9 -19
-7 -19 5 0 9 6 15 13 14 36 -4 40 1 35 46 -5 36 -3 43 7 35 7 -6 15 -29 17
-50z m-82 16 c0 -3 -4 -8 -10 -11 -5 -3 -10 -1 -10 4 0 6 5 11 10 11 6 0 10
-2 10 -4z m265 -15 c-3 -6 -11 -8 -17 -5 -6 4 -5 9 3 15 16 10 23 4 14 -10z
m-128 -26 c0 -8 -4 -12 -9 -9 -4 3 -8 9 -8 15 0 5 4 9 8 9 5 0 9 -7 9 -15z
m46 -19 c4 -10 1 -13 -8 -9 -8 3 -12 9 -9 14 7 12 11 11 17 -5z m-75 -21 c2
-30 -13 -33 -28 -6 -8 16 -6 20 8 24 9 3 17 5 17 6 0 0 2 -10 3 -24z m115 6
c3 -11 -1 -22 -7 -24 -8 -3 -12 3 -10 16 4 35 9 37 17 8z m-1268 -20 c3 -5 -8
-9 -25 -9 -21 1 -27 4 -18 9 17 11 35 11 43 0z m2467 -23 c-7 -7 -12 -8 -12
-2 0 14 12 26 19 19 2 -3 -1 -11 -7 -17z m-1237 2 c3 -5 -1 -10 -9 -10 -9 0
-16 5 -16 10 0 6 4 10 9 10 6 0 13 -4 16 -10z m-125 -20 c0 -5 -2 -10 -4 -10
-3 0 -8 5 -11 10 -3 6 -1 10 4 10 6 0 11 -4 11 -10z m210 0 c0 -5 -7 -10 -16
-10 -8 0 -12 5 -9 10 3 6 10 10 16 10 5 0 9 -4 9 -10z m-123 -22 c-3 -8 -6 -5
-6 6 -1 11 2 17 5 13 3 -3 4 -12 1 -19z m1260 -30 c-3 -7 -5 -2 -5 12 0 14 2
19 5 13 2 -7 2 -19 0 -25z m-1195 -21 c-7 -7 -13 -23 -15 -35 -5 -33 -17 -39
-17 -9 0 25 29 72 38 62 3 -3 0 -11 -6 -18z m-112 -7 c6 -11 8 -20 6 -20 -3 0
-10 9 -16 20 -6 11 -8 20 -6 20 3 0 10 -9 16 -20z m243 5 c-3 -9 -8 -14 -10
-11 -3 3 -2 9 2 15 9 16 15 13 8 -4z m-1408 -14 c3 -5 1 -12 -5 -16 -5 -3 -10
1 -10 9 0 18 6 21 15 7z m1125 -27 c0 -8 -4 -14 -10 -14 -5 0 -10 9 -10 21 0
11 5 17 10 14 6 -3 10 -13 10 -21z m-5 -34 c3 -5 1 -10 -4 -10 -6 0 -11 5 -11
10 0 6 2 10 4 10 3 0 8 -4 11 -10z m125 -27 c0 -21 -3 -24 -9 -14 -5 8 -7 20
-4 28 8 21 13 15 13 -14z m-98 -11 c-6 -2 -12 -11 -13 -20 0 -14 -2 -13 -9 3
-13 31 -12 34 12 27 12 -3 17 -7 10 -10z m27 -13 c-10 -6 -11 -9 -1 -9 6 0 12
-5 12 -11 0 -8 -4 -8 -15 1 -12 10 -12 17 -3 34 8 15 13 17 16 7 2 -7 -2 -17
-9 -22z m1 -70 c0 -17 -13 -39 -23 -39 -6 0 -7 3 -4 7 4 3 0 15 -10 25 -15 17
-15 18 10 16 15 -1 27 -6 27 -9z m60 -19 c0 -5 -5 -10 -11 -10 -5 0 -7 5 -4
10 3 6 8 10 11 10 2 0 4 -4 4 -10z m-60 -40 c0 -5 -2 -10 -4 -10 -3 0 -8 5
-11 10 -3 6 -1 10 4 10 6 0 11 -4 11 -10z m154 -22 c-3 -4 -12 -8 -20 -8 -8 0
-13 4 -10 8 3 5 12 9 20 9 8 0 13 -4 10 -9z m59 -12 c-21 -28 -24 -28 -16 2 3
12 12 22 20 22 11 0 10 -5 -4 -24z m-203 -6 c0 -5 -8 -10 -17 -10 -15 0 -16 2
-3 10 19 12 20 12 20 0z m134 -15 c3 -8 1 -15 -4 -15 -6 0 -10 7 -10 15 0 8 2
15 4 15 2 0 6 -7 10 -15z m1126 0 c0 -9 -9 -15 -22 -15 -22 1 -23 1 -4 15 25
19 26 19 26 0z m108 -84 c2 -14 0 -21 -6 -17 -6 3 -12 0 -15 -6 -3 -7 -5 2 -4
20 0 37 20 39 25 3z m-18 -51 c0 -5 -2 -10 -4 -10 -3 0 -8 5 -11 10 -3 6 -1
10 4 10 6 0 11 -4 11 -10z m-1107 -23 c3 -8 -1 -14 -8 -14 -7 0 -11 6 -8 14 3
7 6 13 8 13 2 0 5 -6 8 -13z m1097 -44 c-11 -17 -11 -17 -6 0 3 10 7 26 7 35
1 15 2 15 6 0 2 -10 -1 -25 -7 -35z m6 -50 c-10 -10 -19 5 -10 18 6 11 8 11
12 0 2 -7 1 -15 -2 -18z m7 -104 c-7 -27 -18 -24 -21 6 -1 17 2 23 12 19 8 -3
12 -14 9 -25z m-1103 -84 c0 5 7 -1 16 -13 8 -12 19 -20 24 -17 4 3 3 -6 -3
-20 -16 -33 -26 -31 -34 6 -3 17 -12 33 -19 36 -8 3 -11 10 -8 15 4 6 10 5 15
-3 5 -8 9 -10 9 -4z m-1230 -84 c0 -5 -6 -14 -14 -20 -12 -10 -13 -8 -9 8 5
21 23 30 23 12z m2337 -84 c-4 -28 -2 -48 5 -55 8 -8 9 -15 2 -22 -7 -7 -11
-7 -12 2 -1 7 -5 30 -8 50 -6 38 -1 68 12 68 4 0 4 -20 1 -43z m-1125 -9 c-6
-6 -12 -5 -17 3 -5 8 -4 10 3 5 8 -5 12 1 13 16 1 18 2 19 6 4 3 -10 0 -23 -5
-28z m65 0 c0 -24 -2 -37 -4 -30 -3 6 -8 10 -12 8 -4 -3 -12 4 -19 14 -10 16
-9 18 3 14 10 -4 15 0 15 15 0 12 4 21 9 21 4 0 8 -19 8 -42z m1031 7 c-3 -3
-9 2 -12 12 -6 14 -5 15 5 6 7 -7 10 -15 7 -18z m-2216 -27 c-7 -7 -12 -8 -12
-2 0 6 3 14 7 17 3 4 9 5 12 2 2 -3 -1 -11 -7 -17z m39 -5 c-8 -15 -10 -15
-11 -2 0 17 10 32 18 25 2 -3 -1 -13 -7 -23z m1132 -60 c-3 -7 -7 -13 -10 -13
-3 0 -3 7 1 15 3 8 1 15 -4 15 -6 0 -10 8 -10 17 0 15 2 15 14 -2 8 -11 12
-25 9 -32z m-1183 5 c0 -19 -2 -20 -10 -8 -13 19 -13 30 0 30 6 0 10 -10 10
-22z m34 -11 c4 -30 -9 -55 -21 -43 -4 5 -3 11 4 13 8 3 9 12 3 28 -5 12 -6
26 -3 29 9 9 14 1 17 -27z m333 -9 c-3 -8 -6 -5 -6 6 -1 11 2 17 5 13 3 -3 4
-12 1 -19z m-22 -28 c3 -5 1 -10 -4 -10 -6 0 -11 5 -11 10 0 6 2 10 4 10 3 0
8 -4 11 -10z m819 -18 c-11 -10 -23 -24 -27 -32 -5 -13 -6 -13 -6 0 -1 19 10
36 29 43 25 9 26 7 4 -11z m-759 -2 c3 -6 -1 -7 -9 -4 -18 7 -21 14 -7 14 6 0
13 -4 16 -10z m-498 -90 c3 -11 9 -20 13 -20 15 0 20 -31 9 -52 -6 -11 -13
-17 -16 -14 -3 3 0 12 7 21 10 12 9 16 -10 23 -15 5 -24 18 -26 35 -3 31 15
37 23 7z m489 -79 c4 -20 11 -42 17 -48 6 -9 6 -13 -2 -13 -8 0 -8 -7 1 -24
13 -31 6 -52 -22 -59 -14 -3 -20 -1 -17 6 3 7 10 11 17 9 9 -2 11 6 5 30 -4
18 -8 41 -8 50 -1 16 -3 16 -20 1 -17 -16 -18 -16 -8 9 9 23 8 26 -6 21 -11
-4 -14 -3 -9 5 4 7 14 12 22 12 19 0 18 19 -1 26 -8 4 -15 15 -15 27 0 19 1
19 20 2 11 -10 23 -34 26 -54z m-338 -16 c-3 -3 -9 2 -12 12 -6 14 -5 15 5 6
7 -7 10 -15 7 -18z m-127 -39 c-7 -8 -10 -20 -6 -26 3 -5 2 -10 -4 -10 -6 0
-8 -7 -5 -15 4 -8 2 -15 -3 -15 -10 0 -9 72 2 89 5 9 10 10 18 2 7 -7 6 -15
-2 -25z m1206 -38 c-3 -8 -6 -5 -6 6 -1 11 2 17 5 13 3 -3 4 -12 1 -19z m-260
-20 c-3 -8 -6 -5 -6 6 -1 11 2 17 5 13 3 -3 4 -12 1 -19z m-967 -45 c0 -20 -3
-24 -11 -16 -7 7 -9 19 -6 27 10 24 17 19 17 -11z m40 23 c0 -3 -4 -8 -10 -11
-5 -3 -10 -1 -10 4 0 6 5 11 10 11 6 0 10 -2 10 -4z m1170 -6 c0 -5 -2 -10 -4
-10 -3 0 -8 5 -11 10 -3 6 -1 10 4 10 6 0 11 -4 11 -10z m-90 -65 c0 -8 -2
-15 -4 -15 -2 0 -6 7 -10 15 -3 8 -1 15 4 15 6 0 10 -7 10 -15z m-650 -2 c0
-2 -6 -18 -14 -36 -14 -36 -3 -68 22 -60 6 3 12 0 12 -6 0 -6 -10 -11 -21 -11
-20 0 -21 -1 -5 -25 19 -29 19 -35 5 -72 l-12 -28 -12 40 c-8 26 -9 44 -3 52
5 7 6 18 2 25 -12 19 -13 98 -2 98 6 0 8 6 5 13 -3 8 1 14 9 14 8 0 14 -2 14
-4z m636 -88 c-9 -21 -12 -22 -17 -7 -4 9 -2 19 2 20 5 2 7 8 4 13 -4 5 0 6 8
3 12 -4 12 -10 3 -29z m-851 -62 c-3 -21 -11 -42 -16 -48 -6 -6 -8 -1 -5 15 2
14 5 35 5 48 1 12 6 22 12 22 8 0 9 -13 4 -37z m840 17 c-3 -5 1 -10 9 -10 10
0 16 -9 16 -25 0 -14 -4 -25 -10 -25 -5 0 -13 -1 -16 -2 -4 -2 -8 10 -10 26
-3 28 2 46 12 46 3 0 2 -4 -1 -10z m-791 -62 c4 -23 12 -49 19 -57 9 -12 9
-13 0 -7 -16 9 -16 -4 -2 -96 15 -96 6 -114 -55 -115 -49 -1 -70 11 -36 20 11
3 20 1 20 -4 0 -5 5 -9 10 -9 6 0 10 8 10 18 0 15 2 15 11 2 8 -11 8 -9 3 10
-4 14 -7 46 -6 73 1 26 -2 47 -8 47 -6 0 -6 10 1 27 6 15 9 41 9 58 -5 91 11
113 24 33z m809 -45 c-7 -2 -19 -2 -25 0 -7 3 -2 5 12 5 14 0 19 -2 13 -5z
m-645 -20 c-1 -8 4 -24 23 -71 5 -13 9 -34 9 -47 0 -13 4 -26 9 -29 11 -7 2
-48 -13 -58 -19 -13 -25 3 -21 57 3 43 1 55 -10 55 -11 0 -13 12 -11 48 2 26
4 48 5 50 3 6 11 1 9 -5z m657 -13 c3 -11 3 -25 -1 -31 -3 -6 -6 -38 -5 -71 1
-52 -1 -58 -13 -45 -8 8 -15 30 -16 48 -1 19 -2 46 -2 60 -2 53 24 80 37 39z
m-572 -20 c-3 -12 -8 -19 -11 -16 -5 6 5 36 12 36 2 0 2 -9 -1 -20z m-306 -31
c2 -16 -1 -19 -9 -11 -5 5 -7 15 -4 21 10 15 12 14 13 -10z m807 -4 c-7 -16
-24 -21 -24 -6 0 8 7 13 27 20 1 1 0 -6 -3 -14z m-813 -92 c-8 -15 -10 -15
-11 -2 0 17 10 32 18 25 2 -3 -1 -13 -7 -23z m539 7 c0 -5 -2 -10 -4 -10 -3 0
-8 5 -11 10 -3 6 -1 10 4 10 6 0 11 -4 11 -10z m-141 -42 c0 -24 -7 -59 -15
-78 -13 -35 -14 -34 -12 35 2 75 4 85 19 85 5 0 9 -19 8 -42z m492 -39 c5 -3
0 -14 -12 -25 l-21 -19 6 40 c3 22 6 45 7 50 1 6 4 -1 6 -15 3 -14 9 -28 14
-31z m-791 11 c0 -5 -7 -10 -15 -10 -14 0 -14 -3 0 -31 13 -25 14 -37 5 -65
-6 -19 -9 -46 -6 -62 3 -15 2 -51 -2 -79 -7 -40 -6 -53 3 -53 8 0 13 -14 13
-34 0 -19 3 -39 6 -45 3 -5 2 -20 -3 -33 -5 -13 -12 -32 -15 -42 -4 -10 -9
-17 -11 -14 -10 10 -22 97 -14 105 12 13 -12 113 -27 113 -8 0 -14 9 -14 19 0
11 -7 26 -15 35 -8 8 -15 21 -15 30 0 8 -7 21 -15 29 -13 13 -13 16 0 21 9 3
15 0 15 -9 0 -8 5 -15 11 -15 5 0 7 -4 4 -10 -3 -5 1 -10 9 -10 9 0 16 4 16 9
0 5 9 13 20 16 11 4 18 11 14 16 -3 5 -9 7 -14 4 -4 -3 -10 13 -12 34 -2 22 1
37 5 34 5 -3 7 3 5 13 -2 11 5 24 17 31 26 14 35 15 35 3z m174 -47 c6 -42 -4
-63 -21 -40 -4 6 -8 27 -8 45 1 22 -3 31 -12 28 -7 -3 -13 -1 -13 4 0 10 32
19 41 11 4 -3 9 -25 13 -48z m276 51 c0 -3 -7 -13 -16 -21 -10 -10 -12 -18 -5
-22 16 -10 18 -53 2 -59 -10 -3 -12 0 -8 12 4 10 1 16 -8 16 -8 0 -15 5 -15
10 0 6 4 10 9 10 5 0 8 12 5 26 -3 16 -1 23 6 19 5 -3 10 -1 10 4 0 6 5 11 10
11 6 0 10 -3 10 -6z m-374 -83 c0 -11 -5 -17 -13 -14 -10 4 -11 9 -2 19 15 18
15 18 15 -5z m704 -5 c0 -3 -4 -8 -10 -11 -5 -3 -10 -1 -10 4 0 6 5 11 10 11
6 0 10 -2 10 -4z m-478 -60 c0 -26 -2 -50 -6 -53 -3 -4 -6 20 -6 52 0 69 10
69 12 1z m168 23 c0 -5 -4 -9 -10 -9 -5 0 -10 7 -10 16 0 8 5 12 10 9 6 -3 10
-10 10 -16z m310 -30 c0 -5 -4 -9 -8 -9 -5 0 -9 7 -9 15 0 8 4 12 9 9 4 -3 8
-9 8 -15z m-307 -23 c-3 -13 0 -27 6 -30 16 -10 13 -26 -4 -26 -8 0 -15 -7
-15 -16 0 -8 4 -13 9 -10 14 9 20 -18 16 -64 -3 -23 1 -49 7 -59 7 -12 8 -30
2 -56 -11 -47 -35 -60 -34 -18 0 15 -3 49 -8 74 -5 26 -7 82 -5 124 2 43 -1
83 -6 89 -7 8 -3 12 13 14 19 1 22 -2 19 -22z m212 -6 c3 -5 1 -10 -4 -10 -6
0 -11 5 -11 10 0 6 2 10 4 10 3 0 8 -4 11 -10z m-381 -191 c2 -147 -7 -216
-24 -173 -5 12 -6 73 -3 135 3 63 5 134 4 158 0 32 2 42 10 34 7 -7 12 -68 13
-154z m124 126 c-3 -3 -9 2 -12 12 -6 14 -5 15 5 6 7 -7 10 -15 7 -18z m331
-15 c0 -10 -3 -8 -9 5 -12 27 -12 43 0 25 5 -8 9 -22 9 -30z m-846 -70 c-5
-19 -23 -29 -23 -12 0 7 20 32 26 32 1 0 0 -9 -3 -20z m517 -10 c0 -5 -2 -10
-4 -10 -3 0 -8 5 -11 10 -3 6 -1 10 4 10 6 0 11 -4 11 -10z m332 -62 c9 -19 1
-23 -19 -10 -7 5 -10 17 -6 32 4 16 8 20 11 10 3 -8 9 -23 14 -32z m-62 -14
c0 -8 -4 -12 -10 -9 -5 3 -10 10 -10 16 0 5 5 9 10 9 6 0 10 -7 10 -16z m-718
-106 c-7 -7 -12 -8 -12 -2 0 14 12 26 19 19 2 -3 -1 -11 -7 -17z m499 -15 c5
-14 7 -34 3 -42 -4 -9 -8 -23 -10 -31 -2 -8 -8 -16 -14 -18 -6 -2 -1 -12 11
-22 23 -21 19 -41 -9 -34 -11 4 -18 16 -19 40 -1 19 2 32 6 30 3 -3 7 4 7 15
0 10 -5 19 -11 19 -5 0 -3 6 6 13 9 7 14 22 13 35 -5 30 4 28 17 -5z m-148
-90 c4 -19 2 -33 -3 -33 -6 0 -10 17 -10 37 0 43 5 41 13 -4z m-46 -15 c-3 -7
-5 -2 -5 12 0 14 2 19 5 13 2 -7 2 -19 0 -25z m137 17 c-4 -8 -8 -15 -10 -15
-2 0 -4 7 -4 15 0 8 4 15 10 15 5 0 7 -7 4 -15z m-227 -27 c-3 -8 -6 -5 -6 6
-1 11 2 17 5 13 3 -3 4 -12 1 -19z m110 -10 c-3 -8 -6 -5 -6 6 -1 11 2 17 5
13 3 -3 4 -12 1 -19z m27 -80 c-8 -84 -14 -101 -25 -64 -5 17 -4 37 1 47 6 10
10 31 10 48 0 17 4 31 10 31 6 0 7 -24 4 -62z m84 -46 c-10 -48 -10 -55 5 -64
10 -5 14 -14 10 -21 -19 -30 -9 -47 15 -27 8 7 9 7 3 -1 -5 -6 -7 -18 -4 -25
3 -8 -1 -14 -11 -14 -9 0 -16 -4 -16 -10 0 -5 7 -7 15 -4 8 4 15 1 15 -4 0
-19 -20 -24 -37 -10 -13 9 -15 10 -9 0 13 -22 16 -61 5 -68 -8 -5 -8 -9 1 -14
16 -10 4 -30 -17 -30 -12 0 -14 8 -9 43 3 23 5 69 5 102 -2 116 1 168 12 209
11 39 12 40 21 17 5 -16 4 -44 -4 -79z m46 62 c-17 -14 -17 -15 -1 -10 14 5
18 1 15 -16 -2 -12 -9 -24 -17 -26 -10 -3 -12 0 -8 12 4 10 3 15 -3 11 -6 -3
-10 3 -10 14 0 18 12 28 34 30 6 1 1 -6 -10 -15z m-3 -83 c-6 -10 -7 -21 -4
-25 3 -3 1 -6 -5 -6 -7 0 -12 4 -12 9 0 18 12 41 21 41 6 0 6 -8 0 -19z m-473
-159 c6 -18 -15 -14 -22 4 -4 10 -1 14 6 12 6 -2 14 -10 16 -16z m402 -162 c0
-5 -2 -10 -4 -10 -3 0 -8 5 -11 10 -3 6 -1 10 4 10 6 0 11 -4 11 -10z m-106
-15 c-4 -8 -8 -15 -10 -15 -2 0 -4 7 -4 15 0 8 4 15 10 15 5 0 7 -7 4 -15z
m66 -62 c0 -5 -4 -14 -9 -21 -6 -10 -10 -9 -14 7 -3 14 0 21 9 21 8 0 14 -3
14 -7z m20 -23 c0 -5 -4 -10 -10 -10 -5 0 -10 5 -10 10 0 6 5 10 10 10 6 0 10
-4 10 -10z m-13 -82 c-3 -8 -6 -5 -6 6 -1 11 2 17 5 13 3 -3 4 -12 1 -19z m-7
-39 c-7 -11 -14 -18 -17 -15 -3 3 0 12 7 21 18 21 23 19 10 -6z m-13 -61 c-3
-8 -6 -5 -6 6 -1 11 2 17 5 13 3 -3 4 -12 1 -19z m4 -51 c-10 -9 -11 -8 -5 6
3 10 9 15 12 12 3 -3 0 -11 -7 -18z m496 -344 c-3 -10 -5 -4 -5 12 0 17 2 24
5 18 2 -7 2 -21 0 -30z m0 -140 c-3 -10 -5 -4 -5 12 0 17 2 24 5 18 2 -7 2
-21 0 -30z"/>
<path d="M6977 5477 c-12 -18 -12 -24 -1 -35 7 -6 19 -12 26 -12 10 0 10 -2 0
-9 -10 -6 -9 -10 7 -14 12 -3 21 -9 20 -14 -3 -20 2 -34 11 -28 14 9 1 78 -16
88 -9 5 -12 16 -9 28 9 27 -19 25 -38 -4z"/>
<path d="M4175 5820 c3 -5 10 -10 16 -10 5 0 9 5 9 10 0 6 -7 10 -16 10 -8 0
-12 -4 -9 -10z"/>
<path d="M4287 5795 c-4 -8 -2 -17 3 -20 5 -3 6 -13 3 -23 -4 -12 -3 -14 5 -7
17 16 19 65 3 65 -5 0 -11 -7 -14 -15z"/>
<path d="M4207 3779 c4 -13 8 -18 11 -10 2 7 -1 18 -6 23 -8 8 -9 4 -5 -13z"/>
<path d="M4235 3709 c-11 -17 1 -21 15 -4 8 9 8 15 2 15 -6 0 -14 -5 -17 -11z"/>
<path d="M4206 3578 c3 -5 10 -6 15 -3 13 9 11 12 -6 12 -8 0 -12 -4 -9 -9z"/>
<path d="M4280 3532 c0 -5 -14 -8 -31 -6 -19 2 -28 0 -24 -7 4 -5 14 -9 23 -8
30 3 37 -1 22 -11 -13 -8 -13 -10 1 -10 18 0 33 37 18 46 -5 3 -9 1 -9 -4z"/>
<path d="M4212 3458 c-7 -7 -12 -17 -12 -22 0 -6 5 -4 11 4 9 12 9 11 4 -5
-12 -31 -9 -95 5 -108 9 -9 11 -5 9 19 -2 17 2 39 10 47 8 10 10 27 6 47 -7
33 -14 37 -33 18z"/>
<path d="M5175 4170 c-10 -11 -14 -20 -9 -20 5 0 15 9 22 20 7 11 11 20 9 20
-2 0 -12 -9 -22 -20z"/>
<path d="M4281 4204 c0 -11 3 -14 6 -6 3 7 2 16 -1 19 -3 4 -6 -2 -5 -13z"/>
<path d="M4630 2334 c0 -8 5 -12 10 -9 6 4 8 11 5 16 -9 14 -15 11 -15 -7z"/>
<path d="M5281 2174 c0 -11 3 -14 6 -6 3 7 2 16 -1 19 -3 4 -6 -2 -5 -13z"/>
<path d="M4570 8789 c0 -5 5 -7 10 -4 6 3 10 8 10 11 0 2 -4 4 -10 4 -5 0 -10
-5 -10 -11z"/>
<path d="M5960 8746 c0 -2 13 -6 29 -8 17 -2 28 -1 25 4 -5 8 -54 12 -54 4z"/>
<path d="M6045 8720 c3 -5 11 -10 16 -10 6 0 7 5 4 10 -3 6 -11 10 -16 10 -6
0 -7 -4 -4 -10z"/>
<path d="M6897 8023 c-4 -3 -7 -18 -6 -32 1 -26 1 -25 10 3 9 31 7 41 -4 29z"/>
<path d="M7260 7501 c0 -6 4 -13 10 -16 6 -3 7 1 4 9 -7 18 -14 21 -14 7z"/>
<path d="M4328 6683 c7 -3 16 -2 19 1 4 3 -2 6 -13 5 -11 0 -14 -3 -6 -6z"/>
<path d="M4290 6609 c0 -5 5 -7 10 -4 6 3 10 8 10 11 0 2 -4 4 -10 4 -5 0 -10
-5 -10 -11z"/>
<path d="M4237 6561 c2 -7 -2 -21 -9 -29 -10 -12 -10 -14 -1 -8 7 4 18 16 24
28 7 12 7 18 1 14 -6 -3 -12 -3 -15 1 -2 5 -2 2 0 -6z"/>
<path d="M4156 6553 c-6 -14 -5 -15 5 -6 7 7 10 15 7 18 -3 3 -9 -2 -12 -12z"/>
<path d="M4190 6555 c0 -8 2 -15 4 -15 2 0 6 7 10 15 3 8 1 15 -4 15 -6 0 -10
-7 -10 -15z"/>
<path d="M4175 6480 c3 -5 8 -10 11 -10 2 0 4 5 4 10 0 6 -5 10 -11 10 -5 0
-7 -4 -4 -10z"/>
<path d="M4226 6462 c-3 -5 1 -9 9 -9 8 0 12 4 9 9 -3 4 -7 8 -9 8 -2 0 -6 -4
-9 -8z"/>
<path d="M4158 6433 c7 -3 16 -2 19 1 4 3 -2 6 -13 5 -11 0 -14 -3 -6 -6z"/>
<path d="M4220 6415 c-8 -9 -8 -15 -2 -15 12 0 26 19 19 26 -2 2 -10 -2 -17
-11z"/>
<path d="M4150 6376 c0 -9 5 -16 10 -16 6 0 10 4 10 9 0 6 -4 13 -10 16 -5 3
-10 -1 -10 -9z"/>
<path d="M4431 6276 c-6 -7 -8 -16 -4 -19 3 -4 -4 -7 -18 -7 -66 0 -129 -9
-150 -21 -13 -7 -28 -12 -32 -11 -5 1 -5 -2 -2 -8 4 -7 -2 -14 -13 -17 -24 -6
-39 -72 -19 -85 15 -10 33 -10 23 -1 -3 4 16 13 44 20 54 14 86 7 110 -23 14
-16 13 -17 -15 -11 l-30 7 28 -15 c15 -9 27 -18 27 -21 0 -3 -4 -3 -9 0 -5 3
-11 -1 -15 -9 -8 -22 11 -18 28 6 11 16 12 28 5 46 -8 21 -7 24 6 19 9 -3 15
0 15 10 0 10 -7 13 -25 8 -14 -3 -25 -3 -25 1 0 13 29 35 46 35 12 0 14 3 6
13 -5 6 -7 20 -3 29 5 15 8 15 26 1 16 -13 17 -15 3 -10 -19 7 -25 -8 -8 -18
8 -5 7 -11 -1 -21 -7 -8 -7 -14 -1 -14 5 0 12 6 15 13 3 8 16 13 28 12 37 -3
62 59 39 95 -9 13 -11 13 -20 0 -6 -9 -13 -11 -17 -5 -12 15 -30 16 -42 1z
m-126 -68 c-6 -15 -55 -43 -55 -32 0 9 30 36 30 27 0 -4 5 0 11 10 12 21 22
17 14 -5z m58 -2 c4 -10 0 -12 -14 -9 -27 7 -34 23 -11 23 11 0 22 -6 25 -14z
m-13 -54 c0 -5 -7 -9 -15 -9 -8 0 -12 4 -9 9 3 4 9 8 15 8 5 0 9 -4 9 -8z"/>
<path d="M4447 6156 c-4 -10 -1 -13 8 -9 8 3 12 9 9 14 -7 12 -11 11 -17 -5z"/>
<path d="M4423 6111 c0 -11 5 -18 9 -15 4 3 5 11 1 19 -7 21 -12 19 -10 -4z"/>
<path d="M4286 6083 c-6 -14 -5 -15 5 -6 7 7 10 15 7 18 -3 3 -9 -2 -12 -12z"/>
<path d="M4316 6071 c5 -19 3 -23 -10 -18 -9 4 -16 2 -16 -3 0 -12 20 -13 37
-2 10 6 10 12 -3 28 -14 18 -15 18 -8 -5z"/>
<path d="M3990 6049 c0 -5 13 -8 30 -7 34 3 31 10 -5 14 -14 1 -25 -2 -25 -7z"/>
<path d="M3975 6020 c-4 -6 -11 -7 -17 -4 -7 4 -8 2 -4 -5 4 -6 13 -8 19 -4 7
3 4 -3 -7 -15 -18 -21 -18 -21 5 -17 12 3 27 10 33 16 8 9 8 10 -1 5 -7 -4
-13 -2 -13 3 0 6 5 11 10 11 6 0 10 5 10 10 0 13 -27 13 -35 0z"/>
<path d="M4443 6020 c-29 -12 -29 -17 -1 -15 12 1 24 7 26 13 4 14 4 14 -25 2z"/>
<path d="M3925 5900 c-3 -6 -1 -10 4 -10 6 0 11 -7 11 -16 0 -16 21 -15 27 2
4 13 -35 36 -42 24z"/>
<path d="M6300 5901 c0 -6 5 -13 12 -17 6 -4 8 -3 4 4 -3 5 0 13 6 15 8 3 6 6
-4 6 -10 1 -18 -3 -18 -8z"/>
<path d="M3736 5871 c-4 -5 1 -8 9 -7 21 3 31 16 12 16 -9 0 -18 -4 -21 -9z"/>
<path d="M3866 5751 c-4 -5 3 -7 14 -4 23 6 26 13 6 13 -8 0 -17 -4 -20 -9z"/>
<path d="M5504 5689 c-3 -6 -1 -16 5 -22 8 -8 11 -5 11 11 0 24 -5 28 -16 11z"/>
<path d="M5701 5575 c-1 -15 20 -35 37 -35 12 0 12 3 2 15 -7 8 -16 13 -20 10
-5 -3 -11 1 -13 7 -3 7 -6 8 -6 3z"/>
<path d="M5675 5541 c-3 -5 -2 -12 3 -15 5 -3 9 1 9 9 0 17 -3 19 -12 6z"/>
<path d="M5750 5300 c0 -5 5 -10 11 -10 5 0 7 5 4 10 -3 6 -8 10 -11 10 -2 0
-4 -4 -4 -10z"/>
<path d="M5630 5010 c0 -5 5 -10 11 -10 5 0 7 5 4 10 -3 6 -8 10 -11 10 -2 0
-4 -4 -4 -10z"/>
<path d="M5143 4959 c3 -13 10 -40 15 -60 6 -22 6 -43 0 -53 -7 -13 -4 -16 22
-16 27 0 30 -3 25 -20 -4 -11 -2 -20 4 -20 16 0 13 50 -3 56 -7 3 -13 16 -13
29 0 13 -8 31 -17 40 -17 18 -22 45 -7 45 5 0 11 -7 13 -15 2 -13 5 -13 14 3
9 14 8 18 -5 18 -9 1 -25 5 -35 9 -16 7 -18 5 -13 -16z"/>
<path d="M5440 4919 c0 -5 5 -7 10 -4 6 3 10 8 10 11 0 2 -4 4 -10 4 -5 0 -10
-5 -10 -11z"/>
<path d="M5366 4885 c4 -8 10 -15 15 -15 5 0 9 7 9 15 0 8 -7 15 -15 15 -9 0
-12 -6 -9 -15z"/>
<path d="M3755 4870 c-3 -5 1 -10 10 -10 9 0 13 5 10 10 -3 6 -8 10 -10 10 -2
0 -7 -4 -10 -10z"/>
<path d="M5164 4765 c3 -21 16 -31 16 -12 0 9 -4 18 -9 21 -5 4 -8 -1 -7 -9z"/>
<path d="M5160 4700 c0 -5 5 -10 11 -10 5 0 7 5 4 10 -3 6 -8 10 -11 10 -2 0
-4 -4 -4 -10z"/>
<path d="M6470 4640 c0 -5 5 -10 10 -10 6 0 10 5 10 10 0 6 -4 10 -10 10 -5 0
-10 -4 -10 -10z"/>
<path d="M5230 4592 c0 -10 31 -32 44 -32 3 0 6 7 6 16 0 8 -5 12 -10 9 -6 -4
-17 -1 -25 5 -10 8 -15 9 -15 2z"/>
<path d="M5160 4559 c0 -5 5 -7 10 -4 6 3 10 8 10 11 0 2 -4 4 -10 4 -5 0 -10
-5 -10 -11z"/>
<path d="M5235 4550 c-3 -5 0 -10 7 -10 10 0 10 -2 -1 -9 -8 -5 -9 -11 -3 -15
9 -6 22 14 22 35 0 12 -17 12 -25 -1z"/>
<path d="M3866 4428 c-9 -36 -7 -48 7 -42 13 5 17 47 6 59 -4 3 -9 -5 -13 -17z"/>
<path d="M6210 4400 c0 -5 5 -10 11 -10 5 0 7 5 4 10 -3 6 -8 10 -11 10 -2 0
-4 -4 -4 -10z"/>
<path d="M6185 4360 c-3 -5 -1 -10 4 -10 6 0 11 5 11 10 0 6 -2 10 -4 10 -3 0
-8 -4 -11 -10z"/>
<path d="M3870 4233 c0 -21 2 -24 15 -13 8 7 15 16 15 20 0 4 -7 10 -15 14
-11 4 -15 -2 -15 -21z"/>
<path d="M3917 4244 c-3 -5 -3 -21 0 -37 6 -30 33 -38 33 -9 0 23 -25 58 -33
46z"/>
<path d="M6120 4240 c0 -6 7 -10 15 -10 8 0 15 2 15 4 0 2 -7 6 -15 10 -8 3
-15 1 -15 -4z"/>
<path d="M6236 4215 c4 -16 7 -35 7 -42 0 -7 4 -13 9 -13 4 0 8 -12 8 -26 0
-14 -4 -23 -9 -19 -5 3 -13 0 -17 -6 -4 -8 -3 -9 4 -5 7 4 12 1 12 -8 0 -9 -6
-13 -14 -10 -8 3 -17 0 -22 -7 -4 -7 -3 -10 4 -5 6 3 15 -2 21 -11 9 -17 10
-17 16 -1 4 10 13 15 23 12 14 -5 14 -3 -1 9 -15 12 -16 17 -5 24 7 4 14 17
15 28 4 31 -7 66 -17 60 -6 -4 -7 -11 -4 -17 4 -7 2 -8 -4 -4 -7 4 -12 15 -12
24 0 9 -5 24 -10 32 -8 11 -9 7 -4 -15z"/>
<path d="M6267 4219 c7 -7 15 -10 18 -7 3 3 -2 9 -12 12 -14 6 -15 5 -6 -5z"/>
<path d="M5532 4177 c7 -8 20 -12 30 -9 25 6 12 22 -18 22 -20 0 -23 -2 -12
-13z"/>
<path d="M5740 4043 c0 -7 0 -16 -1 -20 0 -4 5 -9 12 -12 8 -2 10 2 6 13 -4
10 -1 16 8 16 8 0 15 4 15 9 0 6 -9 9 -20 8 -11 -1 -20 -7 -20 -14z"/>
<path d="M6286 4051 c-4 -7 -5 -15 -2 -18 9 -9 19 4 14 18 -4 11 -6 11 -12 0z"/>
<path d="M5783 4015 c0 -8 4 -15 9 -15 4 0 8 7 8 15 0 8 -4 15 -8 15 -5 0 -9
-7 -9 -15z"/>
<path d="M6056 3985 c-4 -11 1 -15 21 -15 14 0 24 1 22 3 -2 1 -11 8 -20 15
-14 10 -18 10 -23 -3z"/>
<path d="M5816 3963 c-11 -11 -6 -23 9 -23 8 0 15 4 15 9 0 13 -16 22 -24 14z"/>
<path d="M5956 3951 c-3 -5 0 -11 8 -14 15 -6 26 1 26 15 0 11 -27 10 -34 -1z"/>
<path d="M6286 3925 c4 -8 7 -15 9 -15 2 0 5 7 9 15 3 9 0 15 -9 15 -9 0 -12
-6 -9 -15z"/>
<path d="M5870 3919 c0 -5 5 -7 10 -4 6 3 10 8 10 11 0 2 -4 4 -10 4 -5 0 -10
-5 -10 -11z"/>
<path d="M6120 3894 c0 -8 5 -12 10 -9 6 3 10 10 10 16 0 5 -4 9 -10 9 -5 0
-10 -7 -10 -16z"/>
<path d="M5665 3880 c3 -5 8 -10 11 -10 2 0 4 5 4 10 0 6 -5 10 -11 10 -5 0
-7 -4 -4 -10z"/>
<path d="M6406 3874 c-18 -17 -20 -24 -8 -24 4 0 13 9 20 20 15 24 9 26 -12 4z"/>
<path d="M5320 3866 c0 -9 -4 -14 -10 -11 -5 3 -7 0 -4 -9 3 -8 12 -17 20 -20
11 -4 13 1 8 22 -8 33 -14 41 -14 18z"/>
<path d="M5700 3860 c0 -5 5 -10 11 -10 5 0 7 5 4 10 -3 6 -8 10 -11 10 -2 0
-4 -4 -4 -10z"/>
<path d="M5898 3848 c8 -8 9 -15 1 -25 -9 -9 -8 -13 0 -13 7 0 9 -5 5 -11 -4
-7 -1 -10 7 -7 29 10 14 68 -17 68 -5 0 -3 -5 4 -12z"/>
<path d="M5743 3836 c-13 -6 -23 -14 -23 -19 0 -4 4 -6 9 -3 5 3 12 -1 15 -10
3 -8 2 -12 -4 -9 -6 3 -10 -1 -10 -9 0 -8 5 -18 11 -22 8 -4 7 -9 -2 -15 -11
-7 -11 -11 -2 -17 9 -6 7 -12 -7 -25 -16 -14 -20 -29 -20 -82 0 -83 1 -77 -17
-97 -9 -10 -11 -18 -5 -18 6 0 14 5 18 11 7 12 24 -6 24 -26 0 -5 -5 -3 -10 5
-8 13 -10 12 -10 -2 0 -10 -4 -18 -10 -18 -5 0 -6 -7 -3 -17 4 -11 3 -14 -5
-9 -8 5 -12 -1 -12 -18 0 -14 5 -26 10 -26 16 0 12 -27 -5 -34 -8 -3 -15 -1
-15 5 0 6 -5 7 -11 3 -6 -3 -15 0 -21 7 -7 11 -8 9 -5 -6 2 -11 10 -19 17 -17
11 3 10 -2 -3 -16 -16 -17 -16 -21 -3 -34 11 -12 12 -18 3 -27 -6 -6 -8 -11
-4 -11 3 0 2 -11 -3 -25 -7 -17 -6 -25 1 -25 8 0 8 -4 2 -12 -6 -7 -8 -22 -6
-33 9 -41 8 -60 -4 -57 -7 1 -13 -1 -13 -4 0 -9 27 -33 32 -29 3 3 3 -9 0 -25
-2 -16 -8 -27 -14 -24 -5 3 -6 15 -2 26 4 13 2 18 -4 14 -16 -10 -30 24 -28
71 1 33 -2 40 -11 30 -7 -7 -12 -37 -12 -67 1 -152 3 -165 24 -183 18 -17 19
-18 1 -13 -14 5 -16 3 -8 -6 11 -14 12 -17 12 -53 0 -16 6 -25 16 -25 12 0 15
-7 12 -25 -3 -13 -1 -26 4 -29 5 -2 3 -3 -4 -2 -7 2 -13 8 -13 14 0 7 -4 12
-10 12 -21 0 -10 -54 12 -66 25 -12 20 -24 -9 -24 -10 0 -19 -6 -19 -12 -1 -7
-2 -20 -3 -28 0 -8 2 -34 5 -57 3 -24 2 -43 -2 -43 -4 0 -6 -19 -5 -42 2 -24
-1 -54 -6 -68 -16 -42 -18 -62 -7 -83 8 -14 8 -26 -2 -43 -10 -19 -10 -29 0
-50 7 -17 8 -31 3 -36 -6 -6 -6 -26 -2 -46 4 -20 6 -59 4 -87 -10 -114 -10
-126 -2 -131 4 -3 8 -15 8 -27 0 -18 2 -19 10 -7 12 18 12 3 1 -25 -5 -11 -4
-31 1 -45 15 -39 19 -180 7 -233 -13 -55 -4 -138 14 -134 20 4 10 -57 -13 -72
-22 -15 -26 -37 -7 -44 9 -3 9 -9 0 -28 -37 -77 -37 -91 2 -264 7 -33 14 -69
14 -80 0 -11 4 -48 9 -83 4 -36 4 -66 -1 -69 -5 -3 -7 -14 -4 -24 3 -11 2 -19
-2 -19 -4 0 -8 -32 -9 -70 -2 -47 2 -70 9 -70 8 0 10 -23 5 -81 -5 -55 -4 -84
4 -94 8 -9 8 -20 2 -32 -17 -30 -25 -110 -13 -117 6 -4 8 -18 5 -32 -4 -16 -2
-24 7 -24 9 0 8 -4 -3 -12 -19 -15 -30 -92 -16 -106 6 -6 6 -17 -1 -31 -8 -14
-9 -27 -2 -40 6 -10 8 -35 4 -55 -6 -36 -5 -36 29 -36 l35 0 1 52 c2 37 -1 48
-7 38 -17 -26 -24 -2 -13 42 13 48 13 120 0 128 -4 4 0 17 9 30 9 13 18 33 20
45 10 83 30 522 25 547 -3 10 -10 14 -19 11 -13 -5 -15 -1 -9 23 19 70 12 108
-26 146 -22 22 -23 39 -3 32 18 -7 20 28 5 106 -5 29 -7 57 -3 63 4 7 6 25 5
42 -1 16 2 37 8 45 6 10 10 11 10 3 0 -7 5 -13 10 -13 7 0 7 6 0 19 -11 22 2
37 23 25 9 -5 9 -4 0 6 -9 9 -9 19 -2 32 12 22 9 70 -5 80 -13 9 -15 49 -3 41
6 -4 8 0 4 10 -3 9 -9 47 -12 85 -6 55 -4 70 9 81 9 7 15 23 15 35 -1 16 -2
17 -6 4 -4 -15 -9 -13 -30 13 -22 25 -24 32 -12 40 11 7 11 11 1 17 -8 6 -11
20 -7 42 4 22 1 38 -9 49 -16 18 -14 54 4 76 7 8 7 34 1 76 -5 35 -6 68 -4 72
5 8 5 57 0 187 -2 37 -5 45 -21 45 -11 0 -21 -6 -24 -13 -2 -7 0 -12 5 -11 20
3 27 -2 14 -10 -10 -7 -19 -4 -27 7 -17 23 8 46 42 38 24 -7 26 -5 21 28 -4
28 -2 34 12 29 12 -4 13 -3 3 5 -11 7 -11 12 2 24 17 17 11 28 -13 28 -11 0
-12 -3 -4 -8 7 -4 9 -13 4 -21 -11 -17 -27 -8 -34 19 -3 13 -1 18 5 13 7 -3 8
-1 4 5 -9 14 12 55 24 47 10 -6 5 79 -6 96 -4 8 -3 9 4 5 8 -5 12 0 12 13 0
11 5 23 12 27 8 5 10 -3 6 -27 -6 -37 0 -89 11 -89 4 0 7 8 8 18 3 51 9 72 20
72 7 0 13 7 13 15 0 8 7 15 15 15 20 0 19 -9 -5 -28 -11 -10 -22 -33 -24 -53
-4 -34 -2 -37 26 -43 17 -3 27 -10 23 -17 -4 -6 -14 -8 -22 -5 -8 3 -11 1 -8
-4 10 -17 -5 -32 -20 -20 -9 7 -8 0 3 -24 9 -19 19 -33 24 -30 4 3 5 -2 2 -11
-4 -8 -1 -21 4 -28 7 -8 7 -18 2 -27 -14 -21 -12 -30 4 -24 19 7 18 -44 -3
-75 -9 -15 -11 -22 -3 -18 6 5 12 4 12 0 0 -5 -6 -15 -12 -22 -10 -11 -10 -13
0 -7 14 8 17 -10 2 -19 -5 -3 -10 -11 -10 -17 0 -7 5 -6 14 1 12 10 13 8 9 -8
-5 -20 -14 -25 -38 -22 -6 0 -12 -13 -13 -30 -1 -18 2 -28 7 -24 6 3 8 12 4
20 -3 9 1 15 11 15 19 0 21 -21 4 -39 -9 -10 -10 -12 -1 -7 7 4 17 -2 22 -13
13 -24 14 -54 2 -47 -5 3 -11 -1 -15 -9 -5 -14 6 -20 28 -16 5 1 1 -10 -9 -25
-15 -23 -15 -30 -4 -53 7 -14 12 -30 11 -34 -1 -4 2 -16 8 -26 7 -14 6 -22 -5
-31 -8 -7 -15 -23 -15 -35 0 -13 -6 -26 -12 -28 -10 -4 -10 -6 0 -6 6 -1 12
-9 12 -18 0 -15 2 -15 9 -4 6 9 8 -6 7 -42 -2 -31 -7 -62 -13 -69 -7 -9 -4
-18 8 -30 22 -21 37 -5 18 18 -10 13 -10 17 2 25 12 8 12 10 -1 19 -12 8 -11
10 8 10 12 0 22 -4 22 -10 0 -5 5 -10 11 -10 7 0 10 20 7 55 -2 37 1 56 10 60
14 5 16 32 2 37 -6 2 -4 13 4 29 9 18 10 32 4 43 -5 9 -8 48 -6 86 2 42 -1 68
-7 67 -18 -3 -8 113 10 127 22 16 17 91 -5 91 -15 0 -21 8 -19 23 4 27 -4 129
-12 144 -7 13 -5 20 10 28 24 12 31 -3 20 -44 -5 -16 -4 -36 1 -47 6 -10 10
-28 10 -40 0 -15 3 -20 10 -13 5 5 6 24 1 46 -5 21 -5 36 -1 33 4 -3 8 19 8
48 0 28 3 65 7 81 6 21 5 27 -4 22 -6 -4 -11 -2 -11 4 0 6 -5 8 -11 5 -6 -4
-8 -13 -5 -21 7 -18 -3 -44 -16 -44 -15 0 0 193 18 236 18 42 18 44 -3 44 -17
1 -17 1 0 11 14 8 15 14 7 24 -13 15 3 55 21 55 6 0 3 7 -5 16 -21 20 -20 38
0 30 11 -4 15 -2 11 8 -3 8 -1 17 6 20 9 3 8 5 -1 5 -18 1 -5 21 14 21 11 0
12 -4 4 -19 -14 -27 -13 -38 5 -38 14 0 19 11 16 31 -5 26 9 36 35 26 24 -9
25 -9 14 5 -11 13 -10 14 6 9 18 -7 18 -7 2 13 -10 11 -18 25 -18 31 0 6 -8
16 -17 21 -10 6 -14 11 -9 11 5 0 3 7 -4 15 -11 13 -10 14 4 9 9 -3 16 -11 16
-17 0 -6 3 -8 6 -5 3 4 -2 18 -11 32 -10 14 -13 26 -7 26 14 0 21 57 8 70 -7
7 -5 19 6 38 9 15 17 30 17 35 2 12 -33 44 -45 40 -8 -3 -10 10 -7 39 10 83 5
138 -12 138 -5 0 2 8 17 18 21 14 24 20 15 32 -7 8 -28 15 -47 15 -19 0 -40 3
-46 7 -7 5 -14 2 -18 -8 -4 -11 0 -18 14 -21 22 -6 26 -23 8 -41 -8 -8 -8 -15
3 -28 10 -13 11 -16 1 -10 -9 5 -13 3 -11 -5 3 -27 -1 -35 -21 -35 -11 0 -20
4 -20 8 0 4 -7 5 -15 2 -11 -5 -13 -2 -9 10 4 10 13 15 20 12 7 -3 16 0 20 7
4 7 4 9 -1 5 -4 -4 -14 -3 -20 2 -9 8 -15 6 -19 -6 -6 -16 -8 -15 -20 2 -16
22 -11 38 10 30 8 -3 14 1 14 9 0 8 -5 14 -12 13 -6 -2 -15 12 -19 30 -5 25
-4 32 6 28 8 -3 19 2 25 10 15 17 -5 48 -27 40 -18 -7 -17 41 2 77 8 15 11 25
6 23 -4 -3 -13 11 -19 31 -9 29 -9 39 1 45 18 11 -4 7 -30 -6z m66 -200 c-11
-9 -69 -15 -64 -6 3 6 20 10 37 10 17 0 29 -2 27 -4z m-62 -108 c-3 -8 -6 -5
-6 6 -1 11 2 17 5 13 3 -3 4 -12 1 -19z m36 -37 c4 -17 2 -18 -13 -8 -10 6
-16 15 -14 19 9 14 22 9 27 -11z m-13 -27 c14 -3 28 -12 32 -18 5 -7 8 -7 8
-1 0 12 39 14 56 3 6 -4 9 -20 6 -34 -3 -19 -1 -25 7 -20 15 10 14 -7 -1 -23
-7 -8 -8 -11 -3 -9 18 10 34 -16 19 -30 -19 -17 -27 -16 -35 5 -7 16 -8 15 -8
-4 -1 -13 4 -23 10 -23 6 0 17 -6 24 -14 12 -12 12 -15 -1 -20 -8 -3 -12 -2
-9 4 3 5 -3 8 -14 7 -11 -1 -25 -11 -32 -24 -9 -17 -15 -20 -26 -12 -10 9 -17
8 -30 -2 -15 -13 -15 -12 -4 9 13 24 26 28 37 11 4 -8 9 -7 15 2 13 21 11 29
-6 23 -8 -4 -15 -1 -15 5 0 6 10 11 22 11 20 0 20 1 3 20 -17 19 -17 20 9 30
15 5 24 15 21 20 -5 8 -12 7 -23 -2 -25 -20 -31 -30 -24 -46 4 -10 1 -13 -7
-8 -8 5 -10 18 -6 33 3 14 1 31 -5 38 -8 9 -8 15 0 20 16 10 2 25 -17 18 -10
-4 -14 -2 -10 4 4 6 -4 13 -18 15 -13 3 -26 0 -29 -6 -2 -6 -5 -1 -5 12 -1 18
3 22 17 18 9 -2 28 -8 42 -12z m-6 -66 c-3 -4 -9 -8 -15 -8 -5 0 -9 4 -9 8 0
5 7 9 15 9 8 0 12 -4 9 -9z m19 -33 c-7 -21 -13 -19 -13 6 0 11 4 18 10 14 5
-3 7 -12 3 -20z m-43 -5 c0 -5 -6 -7 -14 -4 -8 3 -21 -4 -29 -16 -12 -18 -19
-20 -34 -11 -15 9 -16 10 -2 11 9 0 19 7 23 15 6 16 56 21 56 5z m231 -25 c5
4 6 -1 2 -10 -5 -13 -7 -14 -14 -3 -5 7 -8 18 -8 23 0 6 3 4 6 -3 2 -6 9 -10
14 -7z m-194 -17 c-1 -27 -14 -38 -34 -31 -12 5 -12 7 -1 14 7 5 14 13 14 19
2 18 4 20 13 20 6 0 9 -10 8 -22z m-80 -27 c-10 -4 -18 -11 -17 -16 1 -5 -3
-10 -9 -11 -7 -2 -7 0 -2 2 6 3 7 12 4 20 -3 10 2 14 18 13 20 0 21 -1 6 -8z
m173 -35 c0 -2 -6 -9 -14 -15 -11 -9 -16 -9 -22 0 -4 7 -3 9 4 5 6 -3 13 -2
17 4 6 10 15 14 15 6z m-46 -77 c-5 -8 -12 -3 -21 15 -8 15 -18 24 -23 21 -6
-3 -7 1 -4 10 5 13 10 11 31 -9 14 -15 22 -30 17 -37z m-142 19 c-7 -7 -12 -8
-12 -2 0 14 12 26 19 19 2 -3 -1 -11 -7 -17z m203 -16 c-8 -8 -25 10 -19 20 4
6 9 5 15 -3 4 -7 6 -15 4 -17z m-115 -2 c0 -5 -2 -10 -4 -10 -3 0 -8 5 -11 10
-3 6 -1 10 4 10 6 0 11 -4 11 -10z m98 -47 c-1 -16 -6 -34 -11 -40 -6 -8 -6
-13 0 -13 5 0 9 -9 10 -20 1 -11 -2 -20 -8 -20 -9 0 -14 34 -9 55 1 6 2 17 2
25 0 19 6 40 13 40 2 0 4 -12 3 -27z m-53 -52 c3 -5 1 -12 -5 -16 -5 -3 -10 1
-10 9 0 18 6 21 15 7z m82 -43 c-3 -8 -6 -5 -6 6 -1 11 2 17 5 13 3 -3 4 -12
1 -19z m-126 -44 c-8 -18 -19 -30 -25 -27 -6 4 -6 8 2 11 7 2 12 14 12 26 0
13 6 23 13 23 10 0 10 -7 -2 -33z m-156 -3 c3 -5 1 -12 -5 -16 -5 -3 -10 1
-10 9 0 18 6 21 15 7z m253 -16 c-3 -3 -9 2 -12 12 -6 14 -5 15 5 6 7 -7 10
-15 7 -18z m-43 6 c3 -5 1 -12 -5 -16 -5 -3 -10 0 -10 7 0 9 -3 9 -10 -2 -5
-8 -10 -10 -10 -4 0 22 24 32 35 15z m-56 -69 c-7 -21 -16 -28 -32 -26 -12 1
-25 3 -29 3 -5 1 -8 5 -8 10 0 4 11 6 25 3 18 -3 25 0 25 11 0 8 6 18 13 20 6
3 13 6 14 6 1 1 -2 -12 -8 -27z m-119 -8 c0 -9 5 -12 12 -8 7 4 8 3 4 -4 -5
-9 -12 -9 -26 0 -10 7 -16 16 -14 20 9 14 24 9 24 -8z m207 -24 c-1 -18 -15
-30 -44 -36 -7 -1 -13 2 -13 7 0 6 8 9 17 7 12 -2 18 4 19 20 1 13 -4 22 -13
22 -8 0 -11 5 -8 10 10 16 44 -7 42 -30z m-147 -100 c0 -5 -4 -10 -10 -10 -5
0 -10 5 -10 10 0 6 5 10 10 10 6 0 10 -4 10 -10z m-70 -74 c0 -3 -4 -8 -10
-11 -5 -3 -10 -1 -10 4 0 6 5 11 10 11 6 0 10 -2 10 -4z m25 -36 c3 -5 1 -10
-4 -10 -6 0 -11 5 -11 10 0 6 2 10 4 10 3 0 8 -4 11 -10z m-30 -71 c0 -29 -10
-39 -17 -17 -6 17 3 60 11 53 3 -4 6 -20 6 -36z m162 -41 c-3 -8 -6 -5 -6 6
-1 11 2 17 5 13 3 -3 4 -12 1 -19z m13 -28 c0 -5 -4 -10 -10 -10 -5 0 -10 5
-10 10 0 6 5 10 10 10 6 0 10 -4 10 -10z m-185 -49 c-3 -6 -11 -11 -16 -11 -5
0 -4 6 3 14 14 16 24 13 13 -3z m232 -386 c0 -8 -4 -15 -9 -15 -10 0 -11 14
-1 23 9 10 10 9 10 -8z m-193 -350 c-4 -8 -8 -15 -10 -15 -2 0 -4 7 -4 15 0 8
4 15 10 15 5 0 7 -7 4 -15z"/>
<path d="M6152 3795 c-9 -20 -9 -23 3 -18 8 3 15 14 15 24 0 25 -5 24 -18 -6z"/>
<path d="M5680 3800 c0 -5 5 -10 11 -10 5 0 7 5 4 10 -3 6 -8 10 -11 10 -2 0
-4 -4 -4 -10z"/>
<path d="M5350 3780 c0 -11 4 -20 9 -20 5 0 7 9 4 20 -3 11 -7 20 -9 20 -2 0
-4 -9 -4 -20z"/>
<path d="M6290 3786 c0 -9 -4 -14 -10 -11 -5 3 -10 1 -10 -4 0 -6 4 -11 10
-11 5 0 7 -8 3 -17 -6 -16 -4 -16 15 1 l21 18 -11 -30 c-7 -18 -17 -28 -25
-25 -7 3 -19 0 -27 -6 -7 -6 -15 -10 -17 -8 -2 1 2 -4 10 -10 18 -16 31 -17
31 -3 0 6 6 10 13 10 8 0 13 -12 12 -30 0 -20 -4 -29 -12 -26 -7 3 -15 0 -19
-6 -5 -8 4 -9 31 -5 42 7 69 26 47 34 -6 3 -10 9 -7 13 3 5 -1 24 -8 42 -8 18
-12 38 -10 44 2 6 -6 19 -17 29 -18 17 -20 17 -20 1z"/>
<path d="M5410 3767 c0 -30 14 -35 36 -13 17 17 18 36 3 36 -5 0 -7 -4 -4 -10
9 -14 -8 -13 -23 2 -9 9 -12 6 -12 -15z"/>
<path d="M5540 3766 c0 -2 7 -7 16 -10 8 -3 12 -2 9 4 -6 10 -25 14 -25 6z"/>
<path d="M5654 3759 c-4 -8 -3 -9 4 -5 8 4 16 -3 22 -18 5 -14 12 -26 14 -26
3 0 2 7 -1 17 -4 11 -3 14 5 9 7 -4 12 -4 12 1 -1 26 -43 42 -56 22z"/>
<path d="M5910 3746 c0 -9 5 -16 10 -16 6 0 10 4 10 9 0 6 -4 13 -10 16 -5 3
-10 -1 -10 -9z"/>
<path d="M6195 3740 c-3 -5 -1 -10 4 -10 6 0 11 5 11 10 0 6 -2 10 -4 10 -3 0
-8 -4 -11 -10z"/>
<path d="M4015 3704 c3 -42 6 -46 25 -34 13 8 13 13 2 30 -7 11 -10 25 -7 30
4 6 0 10 -8 10 -10 0 -13 -11 -12 -36z"/>
<path d="M5370 3731 c0 -7 5 -9 10 -6 6 3 10 2 10 -2 0 -5 14 -10 30 -11 17
-1 30 2 30 7 0 5 -8 10 -17 10 -10 -1 -28 2 -40 6 -15 5 -23 3 -23 -4z"/>
<path d="M6150 3705 c-7 -8 -11 -15 -9 -16 2 0 15 -2 28 -3 21 -3 22 -1 8 9
-9 7 -14 15 -10 18 3 4 4 7 1 7 -3 0 -11 -7 -18 -15z"/>
<path d="M5780 3697 c0 -8 7 -17 15 -21 8 -3 15 -2 15 3 0 5 -7 14 -15 21 -12
10 -15 10 -15 -3z"/>
<path d="M5919 3693 c-7 -38 -4 -52 14 -62 18 -12 18 -11 4 9 -8 12 -13 30
-10 41 3 10 3 19 -1 19 -3 0 -7 -3 -7 -7z"/>
<path d="M5580 3680 c-12 -7 -12 -12 -2 -22 6 -6 12 -10 13 -7 0 2 2 12 4 22
4 20 4 19 -15 7z"/>
<path d="M5660 3654 c0 -8 5 -12 10 -9 6 4 8 11 5 16 -9 14 -15 11 -15 -7z"/>
<path d="M5836 3625 c4 -8 7 -15 9 -15 1 0 8 7 15 15 10 13 9 15 -8 15 -15 0
-20 -5 -16 -15z"/>
<path d="M6104 3603 c-4 -16 -11 -34 -17 -40 -6 -9 -6 -13 1 -13 17 0 19 -34
2 -48 -13 -11 -13 -11 2 -6 12 4 16 1 13 -13 -1 -10 -8 -17 -15 -15 -8 2 -10
-3 -6 -13 3 -9 0 -18 -8 -21 -12 -4 -10 -10 6 -29 12 -14 25 -22 30 -19 12 8
10 -10 -4 -24 -9 -9 -6 -12 15 -12 28 0 56 33 37 45 -10 6 -14 -1 -11 -18 1
-5 -3 -6 -9 -2 -5 3 -10 13 -10 22 0 8 -6 13 -13 10 -8 -3 -14 1 -14 8 0 7 6
11 13 8 9 -3 11 5 8 32 -4 33 -2 36 16 30 11 -4 20 -2 20 4 0 18 15 13 44 -14
34 -32 46 -32 46 1 0 14 5 35 11 46 7 13 7 18 1 14 -6 -3 -13 -2 -16 2 -3 5
-17 7 -30 5 -21 -4 -26 0 -32 22 -4 15 -3 30 2 34 18 12 12 28 -9 26 -12 -1
-24 -10 -25 -20 -3 -12 0 -15 8 -10 9 6 10 3 3 -10 -6 -10 -8 -27 -5 -38 3
-14 1 -18 -9 -15 -8 3 -14 18 -15 34 -1 52 -4 64 -14 64 -5 0 -13 -12 -16 -27z
m131 -112 c3 -5 1 -12 -5 -16 -5 -3 -10 1 -10 9 0 18 6 21 15 7z"/>
<path d="M6232 3598 c-1 -32 24 -50 38 -28 11 17 1 42 -13 33 -6 -4 -8 0 -5 9
4 8 1 15 -6 15 -7 0 -13 -13 -14 -29z"/>
<path d="M4040 3610 c0 -5 5 -10 10 -10 6 0 10 5 10 10 0 6 -4 10 -10 10 -5 0
-10 -4 -10 -10z"/>
<path d="M6313 3601 c-3 -11 -12 -22 -22 -24 -14 -3 -13 -5 3 -12 13 -6 21 -4
24 3 2 7 10 18 17 26 8 7 11 16 8 20 -12 12 -25 6 -30 -13z"/>
<path d="M5818 3593 c7 -3 16 -2 19 1 4 3 -2 6 -13 5 -11 0 -14 -3 -6 -6z"/>
<path d="M6334 3563 c1 -13 -8 -19 -27 -21 -17 -2 -26 -8 -24 -15 3 -7 10 -11
16 -9 7 1 10 -2 6 -8 -3 -5 0 -10 9 -10 8 0 17 -6 19 -12 4 -10 6 -10 6 0 1 6
9 12 19 12 13 0 14 2 3 9 -9 6 -12 20 -9 40 3 20 0 31 -8 31 -6 0 -11 -8 -10
-17z"/>
<path d="M3980 3560 c0 -5 5 -10 11 -10 5 0 7 5 4 10 -3 6 -8 10 -11 10 -2 0
-4 -4 -4 -10z"/>
<path d="M6366 3551 c-3 -5 3 -11 13 -14 14 -3 18 -1 14 9 -6 16 -19 18 -27 5z"/>
<path d="M5559 3506 l-5 -39 18 23 c10 12 18 27 18 34 0 6 -4 5 -9 -3 -7 -11
-10 -10 -13 5 -3 11 -6 3 -9 -20z"/>
<path d="M5445 3510 c-3 -5 -1 -10 4 -10 6 0 11 5 11 10 0 6 -2 10 -4 10 -3 0
-8 -4 -11 -10z"/>
<path d="M6600 3494 c0 -14 3 -14 15 -4 8 7 15 14 15 16 0 2 -7 4 -15 4 -8 0
-15 -7 -15 -16z"/>
<path d="M6295 3480 c4 -6 11 -8 16 -5 14 9 11 15 -7 15 -8 0 -12 -5 -9 -10z"/>
<path d="M6385 3458 c-4 -9 -5 -25 -3 -35 4 -17 5 -16 15 3 7 12 8 26 3 34 -7
12 -10 12 -15 -2z"/>
<path d="M6620 3450 c0 -18 -3 -20 -13 -11 -17 14 -27 4 -27 -25 0 -39 37 -27
45 14 3 19 4 37 1 40 -3 3 -6 -5 -6 -18z m-10 -29 c0 -6 -4 -13 -10 -16 -5 -3
-10 1 -10 9 0 9 5 16 10 16 6 0 10 -4 10 -9z"/>
<path d="M6140 3435 c0 -15 4 -24 10 -20 6 3 10 12 10 20 0 8 -4 17 -10 20 -6
4 -10 -5 -10 -20z"/>
<path d="M6283 3453 c-7 -2 -13 -9 -13 -15 0 -6 6 -6 15 2 8 6 20 8 26 4 8 -4
9 -3 5 4 -8 13 -13 14 -33 5z"/>
<path d="M6220 3430 c0 -7 -16 -29 -36 -47 -37 -36 -41 -64 -12 -69 14 -2 16
1 8 16 -14 25 -13 30 5 24 9 -4 17 1 21 12 3 11 11 29 17 41 6 13 7 26 4 30
-4 3 -7 0 -7 -7z"/>
<path d="M5437 3423 c-4 -3 -7 -11 -7 -17 0 -6 5 -5 12 2 6 6 9 14 7 17 -3 3
-9 2 -12 -2z"/>
<path d="M6350 3400 c0 -5 5 -10 10 -10 6 0 10 5 10 10 0 6 -4 10 -10 10 -5 0
-10 -4 -10 -10z"/>
<path d="M6063 3383 c-7 -2 -13 -9 -13 -15 0 -6 6 -6 15 2 10 9 15 9 15 1 0
-6 5 -11 11 -11 13 0 7 23 -7 26 -5 1 -15 0 -21 -3z"/>
<path d="M5542 3360 c0 -14 2 -19 5 -12 2 6 2 18 0 25 -3 6 -5 1 -5 -13z"/>
<path d="M6337 3362 c-20 -21 -22 -32 -6 -32 5 0 7 5 4 10 -3 6 1 10 9 10 9 0
16 7 16 15 0 19 -3 19 -23 -3z"/>
<path d="M6286 3355 c4 -8 11 -15 16 -15 6 0 5 6 -2 15 -7 8 -14 15 -16 15 -2
0 -1 -7 2 -15z"/>
<path d="M6568 3353 c-24 -6 -23 -19 2 -19 11 0 20 6 20 13 0 7 -1 12 -2 12
-2 -1 -11 -3 -20 -6z"/>
<path d="M6070 3342 c0 -12 59 -22 66 -10 3 4 -1 8 -8 8 -7 0 -23 3 -35 6 -13
4 -23 2 -23 -4z"/>
<path d="M6258 3328 c-7 -21 3 -48 18 -48 8 0 14 -5 14 -11 0 -6 -9 -8 -20 -4
-12 4 -20 2 -20 -5 0 -6 5 -8 10 -5 6 3 10 2 10 -3 0 -22 29 -6 32 18 5 30
-36 82 -44 58z"/>
<path d="M6049 3307 c8 -10 9 -17 3 -17 -6 0 -14 5 -18 11 -4 8 -9 7 -15 -2
-4 -8 -3 -19 4 -27 19 -24 29 -99 13 -106 -6 -2 -5 -5 3 -5 11 -1 11 -4 1 -16
-10 -12 -10 -15 2 -15 11 0 15 14 16 55 0 30 -4 55 -9 55 -10 0 10 40 25 51 5
4 -2 13 -15 20 -22 11 -23 11 -10 -4z"/>
<path d="M6095 3310 c-3 -5 -1 -10 4 -10 6 0 11 5 11 10 0 6 -2 10 -4 10 -3 0
-8 -4 -11 -10z"/>
<path d="M6155 3289 c-48 -12 -53 -19 -51 -75 1 -24 -3 -46 -9 -48 -5 -3 -2
-5 7 -5 20 -1 33 15 19 24 -15 9 -8 64 9 71 8 3 17 5 19 4 2 -1 7 4 11 10 10
17 31 3 23 -15 -3 -9 1 -15 9 -15 10 0 15 10 14 30 -1 16 -3 30 -6 29 -3 -1
-23 -5 -45 -10z"/>
<path d="M6135 3226 c2 -14 6 -38 10 -56 4 -18 2 -36 -5 -45 -8 -10 -8 -15 0
-20 14 -9 26 3 33 30 3 11 5 4 4 -15 -2 -35 -6 -38 -39 -25 -14 5 -18 2 -18
-13 0 -24 -16 -37 -25 -21 -4 5 -13 8 -21 5 -7 -3 -17 2 -22 11 -6 11 -11 12
-16 4 -4 -6 -3 -11 3 -11 5 0 13 -9 16 -21 6 -17 9 -18 23 -7 12 10 14 10 8 1
-10 -17 3 -16 23 1 19 16 101 28 101 15 0 -5 -7 -9 -15 -9 -17 0 -20 -16 -6
-25 13 -8 36 35 32 60 -2 11 -8 26 -13 32 -6 7 -8 24 -6 38 3 14 1 28 -3 31
-5 3 -9 10 -9 15 0 6 5 7 10 4 6 -3 10 -1 10 4 0 10 -14 13 -37 10 -5 -1 -7
-5 -5 -10 1 -5 -3 -9 -8 -9 -6 0 -8 11 -4 25 4 18 2 25 -9 25 -9 0 -13 -8 -12
-24z"/>
<path d="M6428 3200 c-3 -17 -1 -33 4 -36 4 -3 8 11 8 30 0 44 -6 47 -12 6z"/>
<path d="M6272 3209 c2 -6 8 -10 13 -10 5 0 11 4 13 10 2 6 -4 11 -13 11 -9 0
-15 -5 -13 -11z"/>
<path d="M6240 3161 c0 -18 26 -31 38 -19 19 19 14 28 -13 28 -14 0 -25 -4
-25 -9z"/>
<path d="M6065 3109 c-10 -15 3 -25 16 -12 7 7 7 13 1 17 -6 3 -14 1 -17 -5z"/>
<path d="M6320 3036 c0 -12 -5 -16 -15 -12 -8 3 -15 1 -15 -3 0 -16 24 -18 39
-4 10 11 11 17 2 26 -8 8 -11 6 -11 -7z"/>
<path d="M6110 3015 c0 -8 5 -15 10 -15 6 0 10 7 10 15 0 8 -4 15 -10 15 -5 0
-10 -7 -10 -15z"/>
<path d="M6209 3013 c-1 -5 -1 -16 0 -25 2 -11 -5 -18 -16 -19 -16 0 -16 -1 2
-9 26 -10 39 3 26 28 -6 10 -7 22 -4 26 3 3 3 6 0 6 -4 0 -8 -3 -8 -7z"/>
<path d="M6010 2990 c0 -5 6 -10 14 -10 8 0 21 -3 30 -6 10 -4 16 -1 16 8 0 8
-12 15 -30 16 -16 1 -30 -2 -30 -8z"/>
<path d="M6370 2961 c0 -5 5 -13 10 -16 6 -3 10 -2 10 4 0 5 -4 13 -10 16 -5
3 -10 2 -10 -4z"/>
<path d="M5942 2938 c-16 -16 -15 -35 1 -41 8 -3 12 5 12 24 0 16 0 29 0 29
-1 0 -6 -5 -13 -12z"/>
<path d="M6006 2934 c-9 -24 -2 -26 12 -4 7 11 8 20 3 20 -5 0 -12 -7 -15 -16z"/>
<path d="M6055 2941 c-3 -5 -1 -12 4 -15 5 -3 11 1 15 9 6 16 -9 21 -19 6z"/>
<path d="M6217 2933 c-4 -3 -7 -11 -7 -17 0 -6 5 -5 12 2 6 6 9 14 7 17 -3 3
-9 2 -12 -2z"/>
<path d="M6357 2933 c-2 -5 -3 -16 -2 -25 2 -10 -1 -18 -6 -18 -5 0 -9 5 -9
11 0 5 -5 7 -11 4 -14 -9 -8 -14 30 -25 19 -5 29 -5 26 1 -4 5 -2 9 4 9 6 0 8
7 5 15 -4 9 0 15 7 16 8 0 5 4 -6 9 -26 11 -33 12 -38 3z"/>
<path d="M6080 2895 c-7 -9 -8 -15 -2 -15 5 0 12 7 16 15 3 8 4 15 2 15 -2 0
-9 -7 -16 -15z"/>
<path d="M6590 2901 c0 -6 5 -13 10 -16 6 -3 10 1 10 9 0 9 -4 16 -10 16 -5 0
-10 -4 -10 -9z"/>
<path d="M5915 2880 c-3 -5 -2 -10 4 -10 5 0 13 5 16 10 3 6 2 10 -4 10 -5 0
-13 -4 -16 -10z"/>
<path d="M6194 2848 c5 -15 12 -25 15 -23 2 3 11 -1 20 -8 12 -9 11 -7 -2 13
-21 31 -22 41 0 33 11 -4 14 -3 9 5 -4 6 -17 11 -30 10 -21 -2 -22 -5 -12 -30z"/>
<path d="M6110 2855 c0 -9 5 -15 11 -13 6 2 11 8 11 13 0 5 -5 11 -11 13 -6 2
-11 -4 -11 -13z"/>
<path d="M6321 2854 c0 -11 3 -14 6 -6 3 7 2 16 -1 19 -3 4 -6 -2 -5 -13z"/>
<path d="M6360 2848 c0 -5 -4 -6 -10 -3 -5 3 -10 1 -10 -4 0 -6 5 -11 11 -11
5 0 3 -10 -5 -22 -9 -12 -15 -34 -15 -48 1 -17 3 -19 6 -7 2 9 9 17 14 17 6 0
7 -5 3 -12 -5 -7 -3 -8 5 -4 7 5 10 10 7 13 -3 3 5 14 17 24 14 12 17 18 8 19
-9 0 -12 8 -9 23 3 15 0 24 -9 24 -7 0 -13 -4 -13 -9z"/>
<path d="M5910 2830 c0 -5 5 -10 10 -10 6 0 10 5 10 10 0 6 -4 10 -10 10 -5 0
-10 -4 -10 -10z"/>
<path d="M6075 2820 c-4 -12 -3 -26 3 -32 12 -12 23 25 12 42 -6 9 -10 6 -15
-10z"/>
<path d="M6416 2807 c3 -10 9 -15 12 -12 3 3 0 11 -7 18 -10 9 -11 8 -5 -6z"/>
<path d="M6200 2800 c0 -4 9 -10 20 -13 11 -3 20 -2 20 3 0 4 -9 10 -20 13
-11 3 -20 2 -20 -3z"/>
<path d="M6170 2789 c0 -5 5 -7 10 -4 6 3 10 8 10 11 0 2 -4 4 -10 4 -5 0 -10
-5 -10 -11z"/>
<path d="M6153 2759 c11 -14 12 -30 7 -55 -12 -51 -16 -51 -29 1 l-11 45 -21
-21 c-17 -17 -18 -23 -9 -32 10 -9 11 -9 5 3 -8 13 -7 13 8 1 21 -17 22 -35 2
-51 -20 -17 -16 -79 8 -104 9 -11 18 -36 18 -55 l1 -36 8 30 c4 20 2 38 -7 53
-8 13 -11 32 -7 44 4 15 3 18 -6 13 -9 -5 -11 -4 -6 3 12 19 44 14 60 -10 17
-23 13 -38 -10 -38 -8 0 -12 5 -9 10 3 6 -1 10 -10 10 -14 0 -14 -3 2 -30 17
-29 38 -36 38 -13 0 6 11 26 24 43 l23 32 12 -23 c6 -13 20 -25 30 -27 15 -3
17 0 11 20 -8 24 -24 40 -35 33 -3 -2 -15 12 -25 31 -13 25 -24 34 -36 31 -15
-4 -16 -2 -6 14 8 13 13 15 19 6 5 -8 8 -7 8 6 0 15 -11 22 -33 18 -5 -1 -6 3
-2 9 3 6 10 8 15 5 4 -3 11 3 14 12 8 19 -10 34 -31 26 -7 -3 -13 0 -13 6 0 6
-5 11 -11 11 -6 0 -4 -9 4 -21z m41 -122 c-3 -9 -12 -13 -20 -10 -12 4 -11 8
3 18 21 16 26 14 17 -8z m-64 -7 c0 -5 -4 -10 -10 -10 -5 0 -10 5 -10 10 0 6
5 10 10 10 6 0 10 -4 10 -10z m100 -19 c0 -14 -18 -23 -31 -15 -8 4 -7 9 2 15
18 11 29 11 29 0z"/>
<path d="M6280 2743 c0 -10 4 -14 8 -8 4 6 11 13 16 18 5 4 2 7 -7 7 -10 0
-17 -8 -17 -17z"/>
<path d="M6230 2736 c0 -9 5 -16 10 -16 6 0 10 4 10 9 0 6 -4 13 -10 16 -5 3
-10 -1 -10 -9z"/>
<path d="M6590 2729 c0 -5 5 -7 10 -4 6 3 10 8 10 11 0 2 -4 4 -10 4 -5 0 -10
-5 -10 -11z"/>
<path d="M5517 2724 c-8 -8 1 -24 13 -24 4 0 10 7 14 15 5 15 -14 21 -27 9z"/>
<path d="M6415 2709 c-4 -6 -5 -12 -2 -15 2 -3 7 2 10 11 7 17 1 20 -8 4z"/>
<path d="M6284 2698 c-3 -4 4 -8 16 -8 17 0 20 -4 15 -22 -6 -21 -5 -22 8 -5
13 15 15 16 21 2 7 -20 22 -19 30 1 5 12 2 15 -9 10 -11 -4 -15 0 -13 11 2 13
-5 17 -30 18 -18 0 -36 -3 -38 -7z"/>
<path d="M6090 2670 c0 -5 5 -10 11 -10 5 0 7 5 4 10 -3 6 -8 10 -11 10 -2 0
-4 -4 -4 -10z"/>
<path d="M6275 2660 c4 -6 11 -8 16 -5 14 9 11 15 -7 15 -8 0 -12 -5 -9 -10z"/>
<path d="M5880 2652 c0 -5 7 -13 16 -16 10 -4 14 -1 12 6 -5 15 -28 23 -28 10z"/>
<path d="M6390 2617 c0 -9 -6 -17 -13 -17 -7 0 -18 -9 -25 -21 -12 -19 -11
-19 8 -9 11 6 20 7 20 3 0 -4 7 3 16 16 12 17 13 26 5 34 -8 8 -11 7 -11 -6z"/>
<path d="M6450 2563 c1 -13 29 -59 30 -48 0 6 5 3 10 -5 8 -13 10 -12 10 3 0
9 -7 17 -15 17 -8 0 -14 3 -14 8 3 18 -2 32 -11 32 -5 0 -10 -3 -10 -7z"/>
<path d="M6555 2560 c3 -5 8 -10 11 -10 2 0 4 5 4 10 0 6 -5 10 -11 10 -5 0
-7 -4 -4 -10z"/>
<path d="M6370 2548 c0 -4 7 -8 15 -8 8 0 15 4 15 8 0 5 -7 9 -15 9 -8 0 -15
-4 -15 -9z"/>
<path d="M6194 2523 c-4 -16 -6 -32 -6 -36 15 -63 13 -77 -9 -77 -19 0 -20 -2
-8 -17 8 -9 13 -18 12 -20 -2 -1 -3 -8 -3 -14 0 -8 4 -8 14 0 8 7 17 8 20 3 3
-6 -3 -12 -14 -15 -14 -4 -18 -10 -13 -23 5 -13 3 -15 -7 -9 -8 5 -11 3 -8 -6
3 -8 11 -13 17 -11 7 1 9 -3 5 -9 -3 -6 -1 -15 6 -19 8 -5 9 -13 4 -21 -9 -14
-14 -72 -6 -64 3 2 13 0 23 -6 20 -10 26 -39 8 -39 -5 0 -7 -5 -4 -10 4 -6 11
-8 16 -5 5 4 7 -13 4 -39 -4 -46 8 -63 20 -26 6 18 17 24 38 21 4 0 7 6 7 15
0 8 5 12 10 9 6 -3 10 -2 10 4 0 5 -4 13 -10 16 -6 4 -5 17 5 35 13 25 13 29
-3 35 -9 5 -25 8 -34 9 -10 1 -18 4 -18 9 0 28 2 40 7 30 2 -7 12 -13 21 -13
14 0 14 2 3 9 -14 9 -18 62 -6 82 4 5 13 8 21 5 17 -7 19 10 2 20 -6 4 -14 2
-16 -4 -8 -26 -21 -10 -18 23 1 19 -1 35 -5 35 -4 0 -10 9 -14 20 -3 11 -9 19
-13 19 -18 -3 -32 2 -32 11 0 6 9 6 26 0 33 -13 37 -13 31 4 -3 7 0 19 6 25
17 17 3 22 -32 10 -27 -9 -35 -9 -42 2 -6 9 -4 15 6 17 8 2 15 8 15 13 0 6 -4
7 -10 4 -6 -3 -7 1 -4 9 3 9 2 16 -4 16 -5 0 -13 -12 -18 -27z m56 -126 c0 -5
-7 -6 -16 -3 -9 3 -18 6 -20 6 -2 0 -4 7 -4 15 0 13 3 13 20 3 11 -7 20 -17
20 -21z m17 -129 c-3 -8 -6 -5 -6 6 -1 11 2 17 5 13 3 -3 4 -12 1 -19z m-50
-70 c-3 -8 -6 -5 -6 6 -1 11 2 17 5 13 3 -3 4 -12 1 -19z m70 -24 c3 -8 1 -20
-6 -27 -8 -8 -11 -8 -11 0 0 6 -3 18 -6 27 -3 9 -1 16 5 16 7 0 14 -7 18 -16z
m13 -62 c0 -5 -7 -9 -15 -9 -8 0 -12 4 -9 9 3 4 9 8 15 8 5 0 9 -4 9 -8z"/>
<path d="M6426 2533 c-6 -14 -5 -15 5 -6 7 7 10 15 7 18 -3 3 -9 -2 -12 -12z"/>
<path d="M6258 2533 c-10 -2 -18 -8 -18 -13 0 -12 33 -5 38 8 2 7 2 11 0 11
-1 -1 -11 -3 -20 -6z"/>
<path d="M6560 2485 c0 -5 5 -17 10 -25 5 -8 10 -10 10 -5 0 6 -5 17 -10 25
-5 8 -10 11 -10 5z"/>
<path d="M6493 2460 c-1 -16 1 -17 12 -7 7 6 11 15 8 20 -8 13 -19 7 -20 -13z"/>
<path d="M6340 2460 c0 -5 5 -10 10 -10 6 0 10 5 10 10 0 6 -4 10 -10 10 -5 0
-10 -4 -10 -10z"/>
<path d="M6474 2417 c-3 -10 -4 -31 0 -48 3 -16 2 -28 -2 -25 -16 10 -35 -12
-27 -30 5 -11 7 -26 6 -34 -2 -13 -1 -13 8 0 5 8 14 11 18 6 4 -4 0 -13 -9
-20 -18 -13 -8 -43 11 -32 17 11 14 66 -3 66 -8 0 -17 4 -21 9 -5 9 27 2 66
-14 11 -4 19 0 23 11 9 23 2 28 -23 14 -26 -14 -35 3 -27 52 6 39 -9 74 -20
45z"/>
<path d="M6360 2402 c0 -4 9 -8 19 -8 11 0 17 4 15 8 -3 4 -12 8 -20 8 -8 0
-14 -4 -14 -8z"/>
<path d="M6336 2377 c3 -10 9 -15 12 -12 3 3 0 11 -7 18 -10 9 -11 8 -5 -6z"/>
<path d="M6360 2349 c0 -6 -6 -7 -12 -3 -10 5 -10 4 -1 -6 7 -8 16 -9 28 -3
16 9 16 11 1 16 -9 4 -16 2 -16 -4z"/>
<path d="M6346 2261 c-3 -5 1 -14 8 -20 12 -10 13 -8 9 8 -6 23 -9 25 -17 12z"/>
<path d="M6458 2190 c0 -14 0 -32 1 -40 1 -8 2 -32 2 -53 0 -35 23 -77 41 -77
12 0 10 34 -3 47 -8 8 -8 17 0 31 13 24 15 66 3 58 -4 -2 -13 4 -20 15 -9 15
-10 18 0 17 6 -2 13 5 16 14 2 12 -3 16 -17 15 -15 -1 -21 -9 -23 -27z m24
-107 c-3 -16 -7 -22 -10 -15 -4 13 4 42 11 42 2 0 2 -12 -1 -27z"/>
<path d="M6357 2203 c-13 -12 -7 -22 13 -20 11 1 20 7 20 14 0 14 -22 18 -33
6z"/>
<path d="M6328 2073 c7 -3 16 -2 19 1 4 3 -2 6 -13 5 -11 0 -14 -3 -6 -6z"/>
<path d="M6267 2044 c-10 -14 -22 -22 -26 -20 -11 7 -10 -27 1 -41 6 -7 8 -19
5 -27 -5 -12 -1 -13 18 -6 18 7 25 6 25 -2 0 -6 3 -9 6 -5 3 3 0 15 -8 26 -8
12 -17 19 -19 17 -2 -2 -4 7 -4 20 0 30 17 26 26 -7 6 -21 7 -19 8 11 1 51
-10 63 -32 34z"/>
<path d="M6455 2010 c3 -5 8 -10 11 -10 2 0 4 5 4 10 0 6 -5 10 -11 10 -5 0
-7 -4 -4 -10z"/>
<path d="M6471 1986 c-15 -9 -20 -16 -12 -20 6 -4 11 -2 11 5 0 22 13 0 16
-27 2 -25 2 -25 -17 -8 -18 17 -19 16 -15 -36 3 -29 11 -57 18 -61 9 -6 10 -9
1 -9 -8 0 -11 -16 -10 -47 1 -37 -2 -48 -13 -48 -8 0 -15 5 -15 12 0 6 -3 15
-7 19 -20 19 -5 -25 14 -46 33 -36 27 -87 -9 -73 -12 5 -14 3 -7 -8 4 -8 9
-75 9 -149 0 -74 4 -141 9 -148 6 -10 1 -11 -18 -6 -16 4 -26 2 -26 -5 0 -6 7
-11 15 -11 8 0 15 -7 15 -16 0 -8 -4 -12 -10 -9 -5 3 -10 2 -10 -3 0 -6 7 -12
15 -16 9 -3 15 -19 15 -41 0 -20 -4 -34 -9 -30 -5 3 -12 1 -16 -5 -3 -5 1 -10
9 -10 18 0 22 -36 5 -42 -9 -3 -8 -10 1 -28 9 -18 10 -25 1 -28 -14 -5 -14
-29 1 -38 7 -5 9 -2 4 7 -4 8 0 5 9 -6 18 -22 3 -34 -20 -15 -11 9 -13 7 -10
-7 2 -10 4 -20 4 -23 2 -10 41 -6 41 4 0 5 3 6 7 2 4 -4 -2 -15 -14 -24 -21
-16 -21 -19 -9 -73 13 -56 13 -56 -8 -52 -15 4 -17 2 -7 -5 11 -8 11 -10 0
-15 -8 -3 0 -6 16 -6 23 -1 27 -4 15 -11 -8 -5 -10 -10 -5 -10 6 0 12 -12 13
-27 1 -22 0 -24 -8 -13 -8 12 -10 12 -10 -5 0 -12 -3 -16 -8 -9 -5 9 -10 9
-17 0 -20 -23 -16 -37 9 -32 15 3 27 -1 30 -9 3 -9 0 -12 -10 -8 -8 3 -14 2
-13 -3 4 -21 -2 -35 -12 -28 -8 4 -8 1 -1 -13 6 -10 7 -25 3 -32 -6 -8 -13 -2
-23 19 -23 48 -33 18 -13 -39 11 -28 26 -51 39 -57 15 -7 20 -16 18 -36 -2
-16 1 -28 7 -28 6 0 11 -9 11 -20 0 -22 -4 -24 -29 -11 -14 8 -17 5 -19 -20
-2 -24 2 -29 19 -29 18 0 19 -2 9 -15 -10 -12 -10 -15 1 -15 12 0 12 -2 0 -9
-7 -5 -10 -14 -7 -20 10 -15 0 -14 -16 3 -12 11 -16 10 -25 -10 -6 -13 -8 -22
-3 -19 4 3 10 -5 13 -16 3 -12 10 -18 15 -15 5 3 14 -6 21 -20 9 -21 9 -29 -2
-38 -8 -6 -17 -27 -21 -46 -3 -21 -3 -30 3 -22 6 11 10 10 15 -3 3 -9 3 -21 0
-26 -3 -6 -1 -15 4 -22 14 -18 21 -57 11 -57 -5 0 -9 -7 -9 -15 0 -8 8 -15 18
-15 13 0 17 8 16 36 -1 20 -7 39 -14 44 -8 5 -9 9 -1 14 6 4 11 12 11 17 0 6
-4 7 -10 4 -6 -4 -9 5 -8 20 2 23 4 24 14 10 10 -13 13 -8 16 30 2 36 -1 51
-17 68 -16 17 -17 20 -2 14 12 -5 17 -1 17 13 0 11 6 20 14 20 8 0 18 5 22 12
5 7 2 9 -9 5 -21 -8 -30 18 -11 34 9 8 11 16 5 23 -22 27 -20 70 4 112 29 49
34 84 10 64 -13 -11 -15 -8 -15 18 0 46 9 65 26 51 11 -9 14 -7 14 9 0 11 8
28 17 38 11 10 13 19 7 21 -10 3 -9 38 2 91 3 13 9 20 15 16 7 -4 7 1 0 15
-13 23 -18 72 -20 184 0 38 -5 66 -10 63 -23 -15 -45 170 -23 197 9 12 5 54
-15 137 -11 46 -10 60 6 89 12 21 11 26 -3 36 -18 13 -23 85 -6 85 6 0 10 5
10 11 0 5 -5 7 -10 4 -12 -7 -17 5 -23 63 -4 36 -3 43 10 38 12 -5 13 -3 5 7
-6 7 -10 29 -7 47 2 20 -1 41 -9 50 -19 21 -30 60 -17 60 6 0 11 -9 11 -20 0
-11 3 -20 8 -20 4 0 6 21 4 48 -5 85 -4 82 -31 68z m-1 -356 c0 -5 -2 -10 -4
-10 -3 0 -8 5 -11 10 -3 6 -1 10 4 10 6 0 11 -4 11 -10z m0 -45 c0 -8 -2 -15
-4 -15 -2 0 -6 7 -10 15 -3 8 -1 15 4 15 6 0 10 -7 10 -15z m50 -445 c0 -5 -5
-10 -11 -10 -5 0 -7 5 -4 10 3 6 8 10 11 10 2 0 4 -4 4 -10z m19 -82 c-1 -13
3 -36 10 -52 8 -21 9 -32 1 -40 -8 -8 -9 -5 -5 9 l7 20 -18 -20 c-14 -17 -16
-17 -11 -2 4 9 2 17 -4 17 -11 0 -7 59 5 79 11 18 18 13 15 -11z m-9 -243 c0
-7 6 -15 13 -18 8 -3 9 -9 2 -21 -16 -28 -29 -19 -32 25 -2 25 0 38 7 34 5 -3
10 -12 10 -20z m-70 -215 c0 -5 -5 -10 -11 -10 -5 0 -7 5 -4 10 3 6 8 10 11
10 2 0 4 -4 4 -10z"/>
<path d="M5746 1945 c-3 -8 -1 -15 4 -15 6 0 10 7 10 15 0 8 -2 15 -4 15 -2 0
-6 -7 -10 -15z"/>
<path d="M6257 1933 c-5 -4 -13 -8 -18 -8 -12 0 -11 -9 5 -48 l13 -32 8 26 c8
33 3 74 -8 62z"/>
<path d="M6530 1840 c0 -8 5 -22 10 -30 9 -13 10 -13 10 0 0 8 -5 22 -10 30
-9 13 -10 13 -10 0z"/>
<path d="M6560 1795 c0 -9 -6 -12 -15 -9 -9 4 -15 0 -15 -9 0 -10 7 -13 20
-10 17 4 30 43 15 43 -3 0 -5 -7 -5 -15z"/>
<path d="M6371 1754 c0 -11 3 -14 6 -6 3 7 2 16 -1 19 -3 4 -6 -2 -5 -13z"/>
<path d="M4640 1672 c0 -11 4 -23 9 -27 6 -3 8 4 6 16 -6 30 -15 37 -15 11z"/>
<path d="M5736 1658 c3 -5 10 -6 15 -3 13 9 11 12 -6 12 -8 0 -12 -4 -9 -9z"/>
<path d="M5847 1651 c5 -19 -13 -38 -25 -26 -3 3 0 10 8 15 8 6 10 10 4 10
-18 0 -31 -23 -25 -45 7 -25 43 -26 53 -2 4 9 3 28 -2 42 -11 29 -20 34 -13 6z"/>
<path d="M5740 1589 c0 -5 5 -7 10 -4 6 3 10 8 10 11 0 2 -4 4 -10 4 -5 0 -10
-5 -10 -11z"/>
<path d="M5790 1510 c-9 -6 -10 -10 -3 -10 6 0 15 5 18 10 8 12 4 12 -15 0z"/>
<path d="M5845 1430 c-3 -5 -4 -14 -1 -19 3 -5 -1 -11 -8 -14 -8 -3 -17 -1
-20 6 -2 7 -5 -1 -5 -17 -1 -21 3 -27 13 -23 10 4 13 1 9 -9 -3 -7 0 -14 6
-14 5 0 15 -18 21 -40 15 -56 32 -62 24 -8 -3 24 -9 54 -13 68 -5 14 -7 37 -5
53 3 27 -9 36 -21 17z"/>
<path d="M5770 1410 c0 -5 5 -10 10 -10 6 0 10 5 10 10 0 6 -4 10 -10 10 -5 0
-10 -4 -10 -10z"/>
<path d="M5724 1331 c4 -5 0 -12 -6 -14 -7 -3 -2 -6 11 -6 20 -1 21 1 11 14
-14 16 -25 21 -16 6z"/>
<path d="M6405 1250 c-3 -5 -1 -10 4 -10 6 0 11 5 11 10 0 6 -2 10 -4 10 -3 0
-8 -4 -11 -10z"/>
<path d="M5860 1214 c0 -10 5 -26 10 -34 8 -11 9 -7 4 15 -8 37 -14 45 -14 19z"/>
<path d="M5776 1205 c-3 -9 0 -15 9 -15 9 0 12 6 9 15 -4 8 -7 15 -9 15 -2 0
-5 -7 -9 -15z"/>
<path d="M5686 1191 c-4 -6 -3 -11 3 -11 5 0 11 -10 13 -22 2 -13 6 -18 10
-13 3 6 1 21 -6 34 -9 15 -16 20 -20 12z"/>
<path d="M5741 1168 c-1 -20 14 -24 25 -6 4 6 3 8 -4 4 -5 -3 -13 0 -15 6 -3
8 -6 6 -6 -4z"/>
<path d="M5809 1157 c-8 -25 -5 -37 12 -37 22 0 26 25 4 34 -8 3 -15 4 -16 3z"/>
<path d="M5865 1150 c-3 -5 -1 -10 4 -10 6 0 11 5 11 10 0 6 -2 10 -4 10 -3 0
-8 -4 -11 -10z"/>
<path d="M5765 1140 c-3 -5 -1 -10 4 -10 6 0 11 5 11 10 0 6 -2 10 -4 10 -3 0
-8 -4 -11 -10z"/>
<path d="M6550 1140 c0 -5 5 -10 11 -10 5 0 7 5 4 10 -3 6 -8 10 -11 10 -2 0
-4 -4 -4 -10z"/>
<path d="M5240 1110 c-9 -16 -8 -20 5 -20 8 0 15 2 15 4 0 2 3 11 6 20 9 23
-13 20 -26 -4z"/>
<path d="M5783 1098 c-16 -19 -13 -57 4 -51 10 4 11 9 3 18 -8 9 -7 14 1 17 7
2 10 10 8 17 -4 11 -7 10 -16 -1z"/>
<path d="M5873 960 c0 -17 4 -30 9 -30 4 0 8 11 8 24 0 14 -4 27 -8 30 -5 3
-9 -8 -9 -24z"/>
<path d="M5765 930 c-3 -5 -1 -10 4 -10 6 0 11 5 11 10 0 6 -2 10 -4 10 -3 0
-8 -4 -11 -10z"/>
<path d="M6396 922 c-2 -4 -1 -14 3 -21 6 -9 10 -7 14 8 5 20 -7 29 -17 13z"/>
<path d="M5239 862 c-2 -29 -1 -61 2 -70 12 -33 19 19 10 73 l-7 50 -5 -53z"/>
<path d="M5777 880 c3 -11 9 -22 13 -25 5 -3 6 4 3 15 -3 11 -9 22 -13 25 -5
3 -6 -4 -3 -15z"/>
<path d="M5816 857 c3 -10 9 -15 12 -12 3 3 0 11 -7 18 -10 9 -11 8 -5 -6z"/>
<path d="M5857 846 c-4 -10 -6 -21 -4 -24 2 -4 -7 -17 -20 -29 -19 -19 -23
-20 -23 -6 0 12 -3 14 -11 6 -6 -6 -11 -40 -12 -77 -2 -54 1 -66 13 -64 11 3
14 15 13 45 -2 40 0 43 31 48 29 6 33 10 34 41 1 19 -2 44 -7 56 -7 19 -8 19
-14 4z"/>
<path d="M5210 829 c0 -5 5 -7 10 -4 6 3 10 8 10 11 0 2 -4 4 -10 4 -5 0 -10
-5 -10 -11z"/>
<path d="M5750 779 c0 -5 5 -7 10 -4 6 3 10 8 10 11 0 2 -4 4 -10 4 -5 0 -10
-5 -10 -11z"/>
<path d="M5750 707 c0 -11 1 -18 3 -16 1 2 8 11 15 20 9 13 9 16 -3 16 -8 0
-15 -9 -15 -20z"/>
<path d="M5750 627 c0 -20 4 -37 10 -37 5 0 7 14 3 33 -8 45 -13 47 -13 4z"/>
<path d="M4256 624 c-9 -25 -7 -96 3 -90 10 7 7 -36 -15 -176 -10 -64 -12
-104 -6 -114 9 -15 10 -15 17 5 3 12 5 36 4 54 -3 40 20 90 38 83 21 -8 15 12
-7 24 -11 6 -18 16 -14 22 4 6 7 30 7 54 0 24 4 44 8 44 5 0 9 -4 9 -10 0 -5
5 -10 10 -10 15 0 12 19 -5 36 -8 9 -15 11 -15 5 0 -6 -7 -8 -15 -5 -11 5 -13
16 -8 50 6 44 0 58 -11 28z"/>
<path d="M5770 629 c0 -5 5 -7 10 -4 6 3 10 8 10 11 0 2 -4 4 -10 4 -5 0 -10
-5 -10 -11z"/>
<path d="M5783 580 c-8 -23 -8 -30 0 -31 7 0 2 -4 -10 -9 -22 -9 -32 -30 -15
-30 13 0 14 -102 3 -133 -13 -35 -5 -56 19 -50 16 4 18 9 9 25 -7 13 -7 18 -1
14 6 -3 13 0 15 6 4 9 6 9 6 1 1 -17 40 -4 45 16 13 49 16 73 10 83 -4 5 -9 6
-13 1 -3 -5 -18 -16 -32 -25 -25 -16 -27 -16 -25 0 0 9 4 20 8 23 5 3 10 18
12 35 3 16 7 38 9 49 5 21 -9 55 -21 55 -4 0 -13 -13 -19 -30z"/>
<path d="M5860 581 c0 -6 4 -13 10 -16 6 -3 7 1 4 9 -7 18 -14 21 -14 7z"/>
<path d="M6569 543 c-1 -5 -1 -11 -1 -15 1 -3 -5 -12 -13 -18 -19 -15 -19 -30
-1 -64 l13 -27 6 29 c3 16 4 38 1 49 -3 12 -1 24 5 27 6 4 11 11 11 17 0 11
-19 12 -21 2z"/>
<path d="M6426 527 c3 -10 9 -15 12 -12 3 3 0 11 -7 18 -10 9 -11 8 -5 -6z"/>
<path d="M5840 500 c-9 -6 -10 -10 -3 -10 6 0 15 5 18 10 8 12 4 12 -15 0z"/>
<path d="M4420 330 c0 -11 2 -20 4 -20 2 0 6 9 9 20 3 11 1 20 -4 20 -5 0 -9
-9 -9 -20z"/>
<path d="M6517 228 c10 -54 17 -62 36 -43 24 24 22 49 -3 42 -15 -4 -20 0 -20
14 0 10 -4 19 -10 19 -5 0 -7 -14 -3 -32z"/>
<path d="M4406 235 c-3 -10 -2 -23 4 -29 15 -15 22 -2 12 24 -8 21 -9 22 -16
5z"/>
<path d="M5238 226 c-3 -13 -1 -31 4 -40 5 -8 6 -27 4 -41 -3 -15 -1 -23 5
-19 10 6 7 109 -3 120 -3 2 -8 -6 -10 -20z"/>
<path d="M4232 168 c-1 -29 -7 -68 -13 -86 -13 -40 -6 -53 11 -21 14 25 24
159 12 159 -4 0 -9 -24 -10 -52z"/>
<path d="M4378 189 c-5 -29 3 -45 16 -32 9 9 7 51 -3 57 -5 3 -11 -8 -13 -25z"/>
<path d="M4482 145 c0 -16 2 -22 5 -12 2 9 2 23 0 30 -3 6 -5 -1 -5 -18z"/>
<path d="M5703 135 c4 -9 7 -35 7 -56 0 -39 1 -40 33 -37 17 2 31 6 30 11 -2
4 -3 24 -3 45 0 24 -5 39 -12 39 -7 0 -24 3 -37 8 -20 6 -23 4 -18 -10z"/>
<path d="M4392 58 c2 -6 10 -14 16 -16 7 -2 10 2 6 12 -7 18 -28 22 -22 4z"/>
<path d="M4463 55 c0 -8 4 -15 9 -15 4 0 8 7 8 15 0 8 -4 15 -8 15 -5 0 -9 -7
-9 -15z"/>
<path d="M6516 53 c-6 -14 -5 -15 5 -6 7 7 10 15 7 18 -3 3 -9 -2 -12 -12z"/>
</g>
</svg>
